<?xml version="1.0" encoding="utf-8"?>
<!-- Generator: Adobe Illustrator 25.0.0, SVG Export Plug-In . SVG Version: 6.00 Build 0)  -->
<svg version="1.1" id="Layer_1" xmlns="http://www.w3.org/2000/svg" xmlns:xlink="http://www.w3.org/1999/xlink" x="0px" y="0px"
	 viewBox="0 0 452.8 220.9" style="enable-background:new 0 0 452.8 220.9;" xml:space="preserve">
<style type="text/css">
	.st0{fill:#EA4335;}
	.st1{fill:#4285F4;}
	.st2{fill:#FBBC04;}
	.st3{fill:#0F9D58;}
</style>
<g>
	<path class="st0" d="M113.9,109.6l70.6-41c16.2-9.5,21.9-30.5,12.4-47.7C187.3,4.7,166.3-1,149.1,8.5L27.1,79.1L113.9,109.6z"/>
	<path class="st1" d="M166.3,213.6c12.4,0,23.8-6.7,29.6-17.2c9.5-16.2,3.8-38.1-12.4-47.7L61.4,78.1c-16.2-9.5-38.1-3.8-47.7,12.4
		c-9.5,16.2-3.8,38.1,12.4,47.7l122.1,70.6C154.9,212.6,160.6,213.6,166.3,213.6z"/>
	<path class="st2" d="M287.4,213.6c5.7,0,11.4-1.9,17.2-4.8l122.1-70.6l-84.9-31.5l-71.5,41c-16.2,9.5-21.9,30.5-12.4,47.7
		C264.5,207.8,276,213.6,287.4,213.6z"/>
	<path class="st3" d="M409.5,143.9c12.4,0,23.8-6.7,29.6-17.2c9.5-16.2,3.8-38.1-12.4-47.7L304.6,8.5c-16.2-9.5-38.1-3.8-47.7,12.4
		c-9.5,16.2-3.8,38.1,12.4,47.7l122.1,70.6C397.1,142,403.8,143.9,409.5,143.9z"/>
</g>
</svg>
