<?xml version="1.0" encoding="utf-8"?>
<!-- Generator: Adobe Illustrator 24.0.1, SVG Export Plug-In . SVG Version: 6.00 Build 0)  -->
<svg version="1.1" id="Layer_1" xmlns="http://www.w3.org/2000/svg" xmlns:xlink="http://www.w3.org/1999/xlink" x="0px" y="0px"
	 viewBox="0 0 2834.6 448.5" style="enable-background:new 0 0 2834.6 448.5;" xml:space="preserve">
<style type="text/css">
	.st0{fill:#184184;}
</style>
<g>
	<path class="st0" d="M1453.5,448.5l17-79.9h24.7c17.7,0.1,31.7,4.3,27.5,24.6c-3.1,14.5-15,24-32.9,24.6h-12.5l-6.5,30.8H1453.5z
		 M1480,404.5c9.6-0.4,21.3,2.9,24.3-11.3c3-14.2-10.1-10.9-19.5-11.3L1480,404.5z"/>
	<path class="st0" d="M1558.5,450.2c-18.2,0-26.5-11.9-22.8-29.4c3.7-17.5,17.1-29.5,35.3-29.5c18.1,0,26.4,12,22.7,29.5
		C1590,438.2,1576.6,450.2,1558.5,450.2z M1560.8,439.1c10.2,0,13.9-9.5,15.8-18.4c1.9-8.8,2.2-18.4-7.9-18.4
		c-10.2,0-13.9,9.5-15.8,18.4C1551,429.6,1550.7,439.1,1560.8,439.1z"/>
	<path class="st0" d="M1648.5,441.7c-4.6,5.1-10.6,8.5-19,8.5c-5.5,0-15.4-4.2-15.7-12.3c-0.1-3.4,0.4-7,0.8-8.9l7.7-36.1h16.6
		l-7.1,33.3c-1.2,6-0.9,12.8,7.2,12.8c5.2,0,10.8-4.8,12.7-12.8l7.1-33.3h16.6l-9.7,45.6c-0.6,3.3-1.1,6.6-1.4,10h-16.6
		L1648.5,441.7z"/>
	<path class="st0" d="M1715.2,393l-1.8,10.1h0.2c5.4-8.7,12.9-10.9,21.2-10.7l-3.1,14.7h-7.2c-2.8,0.2-6.8,1.8-8.9,4.1
		c-2.4,3.1-3.4,6.2-4.3,9.8l-5.9,27.6h-16.5l9.3-44.5c0.5-2.3,1.1-7,1.8-11.1H1715.2z"/>
	<path class="st0" d="M1840.7,368.6h16.6l-14.6,68.9c-0.8,3.7-1.3,7.4-1.8,11.1h-16.6c0.4-2.7,0.7-5.2,1.2-7.9h-0.2
		c-5,6.5-11.9,9.5-19.1,9.5c-16.3,0-20.7-15.2-17.7-29.4c3.2-15,15-29.5,32.3-29.5c5.8,0,11,3.4,13.1,8.1h0.2L1840.7,368.6z
		 M1813.8,439.1c9,0,14.2-10.8,15.9-18.4c1.6-7.6,0.9-18.4-8.1-18.4c-10.6,0-14,9.8-15.8,18.4
		C1803.9,429.3,1803.2,439.1,1813.8,439.1z"/>
	<path class="st0" d="M1883.7,425.2c-1.5,7.2-2,14,6.6,14c5.7,0,9.1-2.1,11.7-7.2h14.9c-4.3,13.7-16,18.2-29,18.2
		c-19,0-24.4-10.7-20.4-29.3c3.6-16.7,16-29.6,33-29.6c10.4,0,18.3,3.6,20.9,13.3c0.9,3.1,1,6.4,0.7,10c-0.3,3.4-1,7-1.8,10.6
		H1883.7z M1905.3,414.1c1.3-6.1,0.8-11.7-7.3-11.7c-7.6,0-10.5,5.6-12,11.7H1905.3z"/>
	<path class="st0" d="M1942.2,393h17.6l4.4,37.6h0.2l20.7-37.6h15.8l-31.9,55.6h-18.1L1942.2,393z"/>
	<path class="st0" d="M2017.1,408.7c1.6-7,5.5-11.3,10.5-13.8c5.1-2.7,11.1-3.6,17.2-3.6c11.2,0,22.8,4.1,19.2,20.8l-6.4,30.3
		c-0.5,2.8-0.4,4.4-0.5,6.1h-14.9c0.2-2.5,0.5-5.1,1-7.4h-0.2c-5.1,6.4-11.5,9.1-19,9.1c-10.4,0-16.9-6-14.6-16.8
		c0.8-3.9,4.6-13.3,15.6-17.6c7.2-2.9,15.7-3.2,22.3-3l1.1-5.2c0.5-2.3-0.3-6.9-6.2-6.9c-5.8,0-8.8,5.4-9.1,8H2017.1z M2025.8,431.2
		c-1,4.6,1.7,8,6.4,8c9.2,0,11.7-10.2,13.1-16.7C2039.5,422.3,2027.7,422.2,2025.8,431.2z"/>
	<path class="st0" d="M2107.9,399.4l0.1,0.3c4.5-5.1,10.4-8.4,18.8-8.4c5.5,0,15.4,4.1,15.7,12.2c0.2,3.4-0.4,7-0.8,8.8l-7.7,36.2
		h-16.6l7.1-33.4c1.1-6,0.9-12.7-7.3-12.7c-5.2,0-10.7,4.7-12.7,12.7l-7.1,33.4H2081l11.8-55.6h16.5L2107.9,399.4z"/>
	<path class="st0" d="M2196.6,412.5c0.8-4.5,0.1-10.1-6.3-10.1c-7.1,0-10,13.3-11.2,17.6c-0.6,5.1-3.5,19.2,3.6,19.2
		c6.4,0,9.6-6.3,10.7-10.9h16.2c-3.6,14.2-14,21.9-29.2,21.9c-16.5,0-21.7-14.7-18.5-29.4c3.1-14.7,14.6-29.5,31.1-29.5
		c14.2,0,23,8.1,20.1,21.2H2196.6z"/>
	<path class="st0" d="M2245.5,425.2c-1.5,7.2-2,14,6.5,14c5.8,0,9.1-2.1,11.7-7.2h14.9c-4.4,13.7-16.1,18.2-29,18.2
		c-19,0-24.4-10.7-20.5-29.3c3.6-16.7,16-29.6,33-29.6c10.4,0,18.3,3.6,20.8,13.3c0.9,3.1,1,6.4,0.7,10c-0.3,3.4-1,7-1.8,10.6
		H2245.5z M2267.1,414.1c1.3-6.1,0.8-11.7-7.2-11.7c-7.6,0-10.5,5.6-12,11.7H2267.1z"/>
	<path class="st0" d="M2324.2,393l-1.8,10.1h0.2c5.4-8.7,13-10.9,21.2-10.7l-3.1,14.7h-7.2c-2.8,0.2-6.8,1.8-8.9,4.1
		c-2.4,3.1-3.4,6.2-4.3,9.8l-5.9,27.6h-16.5l9.3-44.5c0.5-2.3,1.1-7,1.8-11.1H2324.2z"/>
	<path class="st0" d="M2449.7,368.6h16.6l-14.6,68.9c-0.8,3.7-1.3,7.4-1.8,11.1h-16.6c0.3-2.7,0.7-5.2,1.2-7.9h-0.2
		c-5,6.5-11.9,9.5-19.1,9.5c-16.3,0-20.7-15.2-17.6-29.4c3.2-15,15-29.5,32.3-29.5c5.7,0,11,3.4,13.1,8.1h0.2L2449.7,368.6z
		 M2422.8,439.1c9,0,14.3-10.8,15.9-18.4c1.6-7.6,0.9-18.4-8-18.4c-10.6,0-14.1,9.8-15.9,18.4
		C2412.9,429.3,2412.2,439.1,2422.8,439.1z"/>
	<path class="st0" d="M2492.2,425.2c-1.5,7.2-2,14,6.6,14c5.8,0,9.1-2.1,11.7-7.2h14.9c-4.4,13.7-16.1,18.2-29,18.2
		c-19,0-24.4-10.7-20.4-29.3c3.5-16.7,16-29.6,33-29.6c10.4,0,18.3,3.6,20.9,13.3c0.9,3.1,1,6.4,0.6,10c-0.3,3.4-1,7-1.8,10.6
		H2492.2z M2513.8,414.1c1.3-6.1,0.8-11.7-7.3-11.7c-7.6,0-10.5,5.6-12,11.7H2513.8z"/>
	<path class="st0" d="M2571.7,399.5h0.2c4.5-4.9,10.4-8.2,18.8-8.2c6.2,0,14.5,4.4,15.5,10.5c6.7-7.2,12.6-10.5,21-10.5
		c6.2,0,14.4,4.4,15.5,10.5c0.9,4.2-0.2,8.9-1.2,13.3l-7.1,33.4h-16.6l7.1-33.4c1.2-6,0.9-12.7-7.3-12.7c-5.2,0-10.7,4.7-12.7,12.7
		l-7.1,33.4h-16.6l7.1-33.4c1.2-6,0.9-12.7-7.3-12.7c-5.2,0-10.7,4.7-12.7,12.7l-7.1,33.4h-16.6l11.8-55.6h16.5L2571.7,399.5z"/>
	<path class="st0" d="M2668,408.7c1.6-7,5.5-11.3,10.5-13.8c5.1-2.7,11.2-3.6,17.1-3.6c11.2,0,22.8,4.1,19.3,20.8l-6.4,30.3
		c-0.5,2.8-0.4,4.4-0.5,6.1h-14.9c0.2-2.5,0.5-5.1,1-7.4h-0.2c-5.1,6.4-11.5,9.1-19,9.1c-10.4,0-16.9-6-14.6-16.8
		c0.8-3.9,4.6-13.3,15.6-17.6c7.3-2.9,15.8-3.2,22.3-3l1.1-5.2c0.5-2.3-0.3-6.9-6.2-6.9c-5.7,0-8.8,5.4-9.1,8H2668z M2676.6,431.2
		c-1,4.6,1.8,8,6.4,8c9.2,0,11.7-10.2,13.1-16.7C2690.3,422.3,2678.5,422.2,2676.6,431.2z"/>
	<path class="st0" d="M2759.9,393l-11.8,55.6h-16.6l11.8-55.6H2759.9z M2765.7,368.6l-3,14.3h-17.7l3-14.3H2765.7z"/>
	<path class="st0" d="M2800,399.4l0.1,0.3c4.5-5.1,10.4-8.4,18.8-8.4c5.5,0,15.4,4.1,15.7,12.2c0.2,3.4-0.4,7-0.8,8.8l-7.7,36.2
		h-16.6l7.1-33.4c1.2-6,0.9-12.7-7.3-12.7c-5.2,0-10.7,4.7-12.7,12.7l-7.1,33.4H2773l11.8-55.6h16.5L2800,399.4z"/>
</g>
<path class="st0" d="M1061,107.8c5,2.6,10.7,7.2,17,13.5c6.3,6.4,86.5,101.1,86.5,101.1V102.2h35.5V291c0,24.3-7,36.5-21,36.5
	c-13,0-24.9-5.8-35.5-17.5c-9-10.3-110.6-132.2-110.6-132.2V325h-34V137.8c0-9.7,3.7-19.4,10.7-27.4c3.3-3.3,6.3-5.6,10.6-7.6
	c4.3-2,9.9-2.8,15.2-2.5C1051.2,101.4,1061,107.8,1061,107.8z"/>
<path class="st0" d="M1644.1,107.8c5,2.6,10.7,7.2,17,13.5c6.3,6.4,86.5,101.1,86.5,101.1V102.2h35.6V291c0,24.3-7,36.5-21.1,36.5
	c-13,0-24.8-5.8-35.5-17.5c-9-10.3-110.6-132.2-110.6-132.2V325h-34V137.8c0-9.7,3.7-19.4,10.7-27.4c3.3-3.3,6.3-5.6,10.6-7.6
	c4.3-2,9.9-2.8,15.3-2.5C1634.4,101.4,1644.1,107.8,1644.1,107.8z"/>
<path class="st0" d="M1234.1,107.3h191.2v33h-60.1v187.2h-73.6V140.3h-57.6V107.3z"/>
<path class="st0" d="M1471.4,122.8h65v204.7h-65V122.8z"/>
<path class="st0" d="M2161.8,327.5c-25.1,0-42.3-2.7-51.8-8c-9.5-5.3-14.3-15.3-14.3-30v-18V0h61.6v276.9c0,5.4,0.5,8.4,1,11.2
	c2.2,12.3,25,12.4,25,12.4h20h6l0,26.8l-24,0.2H2161.8z"/>
<path class="st0" d="M2310.9,327.5c-25.1,0-42.3-2.7-51.8-8c-9.5-5.3-14.3-15.3-14.3-30v-18V0h61.5v276.9c0,5.4,0.5,8.4,1,11.2
	c2.2,12.3,25,12.4,25,12.4h20h6l0,26.8l-23.9,0.2H2310.9z"/>
<path class="st0" d="M66.1,327.5c-25,0-42.3-2.7-51.8-8C4.7,314.2,0,304.2,0,289.5v-18V0h61.5v276.9c0,5.4,0.5,8.4,1,11.2
	c2.2,12.3,25,12.4,25,12.4h20h6l0,26.8l-24,0.2H66.1z"/>
<path class="st0" d="M933.9,107.3c-7-1-19.7-1.6-38.3-1.6H511.5c-15.3,0-25.2,3.7-29.5,10.9c-4.4,7.2-6.6,23.2-6.6,48v31.6
	l247.1,0.2v129.6c-1.8,32.5-27.6,34.9-35.4,34.9c-1.7,0-337,0-337,0c19.3,42.1,61.6,71.6,111,71.6h187c61.6,0,112-45.7,120.5-104.9
	h10.6h9.5h35.5H941h19.5l-2-27l-140.8,2c-18.7,0-31-1.6-36.8-4.8c-5.8-3.2-8.7-9.6-8.7-19.1v-11.3v-35.8h51.4h18.2h51.4v0.1h67.6
	V139C960.7,139,961.7,109.9,933.9,107.3z M843.2,201.8H822h-49.8v-24.2c0-18.8,1.7-31,5-36.5c3.3-5.6,10.8-8.3,22.5-8.3H813h0.2
	h38.9h0.2h13.3c11.7,0,19.2,2.7,22.5,8.3c3.4,5.6,5,17.7,5,36.5v24.2H843.2z"/>
<path class="st0" d="M174,326c7,1.1,19.7,1.6,38.3,1.6h384.1c15.3,0,25.2-3.7,29.5-10.9c4.4-7.2,6.6-23.2,6.6-48v-31.6L385.4,237
	V107.4c1.8-32.5,27.6-34.9,35.4-34.9c1.8,0,337,0,337,0c-19.3-42.2-61.6-71.6-111-71.6h-187c-61.6,0-112,45.7-120.6,104.9h-10.6
	h-9.5h-35.5H166.9h-19.5l2,27l140.8-2c18.7,0,31,1.6,36.8,4.9c5.8,3.2,8.7,9.6,8.7,19.1v11.3v35.8h-51.4h-18.2h-51.4v-0.1h-67.6
	v92.5C147.2,294.3,146.2,323.4,174,326z M264.7,231.5h21.2h49.8v24.2c0,18.8-1.7,31-5,36.5c-3.3,5.6-10.8,8.3-22.5,8.3h-13.3h-0.2
	h-38.9h-0.2h-13.3c-11.7,0-19.2-2.7-22.5-8.3c-3.4-5.5-5-17.7-5-36.5v-24.2H264.7z"/>
<path class="st0" d="M1859.2,329.1c1.3,0,196.3,0,196.3,0l-2-27.2l-107.6,2c-18.8,0-31.2-1.7-37-4.9c-5.8-3.2-8.8-9.7-8.8-19.3
	v-47.4l155.6,0.1v-93.2c0.5-23.3-20-30.3-27-31.9c-7-1-19.9-1.5-38.6-1.5h-92.5c-18.7,0-31.6,0.5-38.6,1.5c-7,1.6-24.7,9.6-27,31.9
	v163C1831.9,329.7,1859.2,329.1,1859.2,329.1z M1900,202.6v-24.4c0-18.9,1.7-31.2,5.1-36.8c3.3-5.6,10.9-8.4,22.7-8.4h32.1
	c11.7,0,19.3,2.8,22.7,8.4c3.4,5.6,5,17.9,5,36.8v24.4H1900z"/>
<path class="st0" d="M2418,329.1c1.3,0,196.3,0,196.3,0l-2-27.2l-107.6,2c-18.8,0-31.2-1.7-37-4.9c-5.8-3.2-8.8-9.7-8.8-19.3v-47.4
	l155.6,0.1v-93.2c0.5-23.3-20-30.3-27-31.9c-7-1-19.8-1.5-38.5-1.5h-92.5c-18.7,0-31.6,0.5-38.6,1.5c-7,1.6-24.7,9.6-27,31.9v163
	C2390.8,329.7,2418,329.1,2418,329.1z M2458.9,202.6v-24.4c0-18.9,1.7-31.2,5.1-36.8c3.3-5.6,10.9-8.4,22.7-8.4h32.1
	c11.8,0,19.3,2.8,22.7,8.4c3.4,5.6,5,17.9,5,36.8v24.4H2458.9z"/>
<path class="st0" d="M1536.3,38c0,17.9-14.5,32.4-32.4,32.4c-17.9,0-32.4-14.5-32.4-32.4c0-17.9,14.5-32.4,32.4-32.4
	C1521.7,5.7,1536.3,20.2,1536.3,38z"/>
</svg>
