<?xml version="1.0" encoding="utf-8"?>
<!-- Generator: Adobe Illustrator 24.2.1, SVG Export Plug-In . SVG Version: 6.00 Build 0)  -->
<svg version="1.1" id="Слой_1" xmlns="http://www.w3.org/2000/svg" xmlns:xlink="http://www.w3.org/1999/xlink" x="0px" y="0px"
	 viewBox="0 0 139 139" style="enable-background:new 0 0 139 139;" xml:space="preserve">
<style type="text/css">
	.st0{fill:#FFFFFF;}
</style>
<path class="st0" d="M117,47.4C117,47.4,117,47.4,117,47.4C116.9,21.2,95.7,0,69.5,0S22.1,21.2,22,47.4c0,0,0,0,0,0s-6.8,29,44.5,88
	c0,0,1.8,1.8,3,1.8s3-1.8,3-1.8C123.8,76.4,117,47.4,117,47.4z M69.5,75.6C54,75.6,41.4,63,41.4,47.5S54,19.4,69.5,19.4
	S97.6,32,97.6,47.5S85,75.6,69.5,75.6z"/>
</svg>
