<?xml version="1.0" encoding="utf-8"?>
<!-- Generator: Adobe Illustrator 24.2.1, SVG Export Plug-In . SVG Version: 6.00 Build 0)  -->
<svg version="1.1" id="Layer_1" xmlns="http://www.w3.org/2000/svg" xmlns:xlink="http://www.w3.org/1999/xlink" x="0px" y="0px"
	 viewBox="0 0 128 128" style="enable-background:new 0 0 128 128;" xml:space="preserve">
<style type="text/css">
	.st0{fill:#FFFFFF;}
</style>
<path class="st0" d="M83,23c12.2,0,22,9.8,22,22v38c0,12.2-9.8,22-22,22H45c-12.2,0-22-9.8-22-22V45c0-12.2,9.8-22,22-22H83 M83,15
	H45c-16.5,0-30,13.5-30,30v38c0,16.5,13.5,30,30,30h38c16.5,0,30-13.5,30-30V45C113,28.5,99.5,15,83,15z"/>
<path class="st0" d="M90.1,32c-3.2,0-5.7,2.6-5.7,5.7s2.6,5.7,5.7,5.7c3.2,0,5.7-2.6,5.7-5.7C95.9,34.6,93.3,32,90.1,32L90.1,32z"/>
<path class="st0" d="M64.3,46.5C74,46.5,82,54.4,82,64.1s-7.9,17.7-17.7,17.7s-17.7-7.9-17.7-17.7c0,0,0,0,0,0
	C46.6,54.4,54.5,46.5,64.3,46.5 M64.3,38.5c-14.2,0-25.7,11.5-25.6,25.7c0,14.2,11.5,25.7,25.7,25.6C78.5,89.8,90,78.3,90,64.1
	C90,50,78.5,38.5,64.3,38.5C64.3,38.5,64.3,38.5,64.3,38.5z"/>
</svg>
