<?xml version="1.0" encoding="utf-8"?>
<!-- Generator: Adobe Illustrator 24.0.1, SVG Export Plug-In . SVG Version: 6.00 Build 0)  -->
<svg version="1.1" id="Layer_1" xmlns="http://www.w3.org/2000/svg" xmlns:xlink="http://www.w3.org/1999/xlink" x="0px" y="0px"
	 viewBox="0 0 32 32" style="enable-background:new 0 0 32 32;" xml:space="preserve">
<style type="text/css">
	.st0{fill:#FFFFFF;}
</style>
<g transform="translate(96 240)">
	<path class="st0" d="M-65.6-220.9v10.6h-6.2v-9.9c0-2.5-0.9-4.2-3.1-4.2c-1.7,0-2.7,1.1-3.2,2.3c-0.2,0.4-0.2,0.9-0.2,1.5v10.4
		h-6.2c0,0,0.1-16.8,0-18.6h6.2v2.6c0,0,0,0,0,0.1h0v-0.1c0.8-1.3,2.3-3.1,5.6-3.1C-68.6-229.2-65.6-226.6-65.6-220.9L-65.6-220.9z
		 M-90.9-237.8c-2.1,0-3.5,1.4-3.5,3.2c0,1.8,1.3,3.2,3.4,3.2h0c2.2,0,3.5-1.4,3.5-3.2C-87.5-236.4-88.8-237.8-90.9-237.8
		L-90.9-237.8z M-94-210.2h6.2v-18.6H-94V-210.2z"/>
</g>
</svg>
