<?xml version="1.0" encoding="utf-8"?>
<!-- Generator: Adobe Illustrator 24.2.1, SVG Export Plug-In . SVG Version: 6.00 Build 0)  -->
<svg version="1.1" id="Layer_1" xmlns="http://www.w3.org/2000/svg" xmlns:xlink="http://www.w3.org/1999/xlink" x="0px" y="0px"
	 viewBox="0 0 91 91" style="enable-background:new 0 0 91 91;" xml:space="preserve">
<style type="text/css">
	.st0{fill:#FFFFFF;}
</style>
<g>
	<path class="st0" d="M45.4,89c24.1,0,43.7-19.6,43.7-43.7S69.6,1.5,45.4,1.5S1.7,21.1,1.7,45.3C1.7,69.4,21.3,89,45.4,89z
		 M45.4,83.7c-0.7,0-1.5,0-2.2-0.1c-3-4.5-5.5-9.8-7.2-15.6c2.9-0.3,5.9-0.5,8.9-0.5c2.9,0,5.8,0.1,8.6,0.4
		c-1.8,5.9-4.2,11.2-7.3,15.7C45.9,83.7,45.7,83.7,45.4,83.7z M34.6,62.8c-1-4.7-1.7-9.7-1.8-14.9h23.8C56.5,53,55.9,58,54.8,62.8
		c-3.2-0.4-6.6-0.6-9.9-0.6C41.4,62.2,38,62.4,34.6,62.8z M58.8,68.7c4.8,0.8,9.5,2.1,13.8,3.8c-5.3,5.3-12.1,9-19.7,10.5
		C55.3,78.7,57.3,73.9,58.8,68.7z M60.1,63.5c1.1-5,1.7-10.2,1.9-15.6h21.8c-0.5,7.6-3.2,14.5-7.5,20.3
		C71.2,66.1,65.8,64.5,60.1,63.5z M62,42.6c-0.2-5.3-0.8-10.4-1.8-15.3c5.8-1,11.2-2.6,16.2-4.7c4.2,5.7,6.9,12.6,7.4,20.1H62z
		 M56.6,42.6H32.8c0.2-5,0.8-9.9,1.8-14.6c3.4,0.4,6.8,0.6,10.3,0.6c3.4,0,6.7-0.2,10-0.6C55.9,32.7,56.5,37.6,56.6,42.6z
		 M27.5,42.6H7.1c0.5-7.3,3.1-14.1,7.1-19.7c4.7,1.9,9.7,3.4,15.1,4.3C28.3,32.1,27.6,37.3,27.5,42.6z M27.5,47.9
		c0.2,5.4,0.8,10.7,1.9,15.7c-5.3,0.9-10.3,2.4-14.9,4.3c-4.1-5.7-6.8-12.5-7.3-19.9H27.5z M18,72.1c4-1.5,8.2-2.6,12.6-3.4
		c1.4,5,3.4,9.7,5.7,13.8C29.3,80.8,23,77.2,18,72.1z M72.7,18.3c-4.3,1.7-9,3-13.9,3.8c-1.5-5.3-3.5-10.2-6-14.5
		C60.6,9.1,67.4,12.9,72.7,18.3z M46.2,6.9c3.1,4.5,5.6,10,7.3,16c-2.8,0.3-5.7,0.4-8.6,0.4c-3,0-6-0.2-9-0.5
		c1.8-6,4.2-11.4,7.3-15.9c0.7,0,1.5-0.1,2.2-0.1C45.7,6.9,45.9,6.9,46.2,6.9z M36.3,8c-2.3,4.2-4.3,9-5.7,14.1
		c-4.5-0.8-8.8-1.9-12.8-3.4C22.8,13.5,29.2,9.7,36.3,8z"/>
</g>
</svg>
