<?xml version="1.0" encoding="utf-8"?>
<!-- Generator: Adobe Illustrator 24.0.1, SVG Export Plug-In . SVG Version: 6.00 Build 0)  -->
<svg version="1.1" id="Layer_1" xmlns="http://www.w3.org/2000/svg" xmlns:xlink="http://www.w3.org/1999/xlink" x="0px" y="0px"
	 viewBox="0 0 512 512" style="enable-background:new 0 0 512 512;" xml:space="preserve">
<style type="text/css">
	.st0{fill:#FFFFFF;}
	.st1{fill:#231F20;}
	.st2{fill:url(#SVGID_1_);}
	.st3{fill:#FFF200;}
	.st4{fill:url(#SVGID_2_);}
	.st5{fill:url(#SVGID_3_);}
	.st6{fill:url(#SVGID_4_);}
	.st7{fill:url(#SVGID_5_);}
	.st8{fill:url(#SVGID_6_);}
	.st9{fill:url(#SVGID_7_);}
	.st10{fill:url(#SVGID_8_);}
</style>
<g>
	<path class="st0" d="M116.9,88.9c-0.5,0.1-0.9,0.2-1.4,0.3c-1.1,0.3-2.3,0.7-3.4,1.2c-0.8,0.3-1.4,0.7-2,1.2
		c-0.3,0.2-0.6,0.4-0.9,0.6c-0.8,0.6-1.6,1.3-2.3,1.9c-0.6,0.6-1.2,1.3-1.6,1.9c-0.3,0.4-0.6,0.8-0.8,1.1l-0.4,0.6l-0.2-0.1
		c-2.1-0.9-4.5-1.8-7.2-2.3c-3.5-0.7-6.5-0.9-9.4-0.7c-1.2,0-2.5,0.2-3.8,0.4c-1.8,0.3-3.8,0.8-5.8,1.4l-2.7,1l-1.8,0.8
		c-1.2,0.5-2.4,1.2-3.5,1.9l-0.8,0.5c-2.4,1.5-4.6,3.4-7.2,6c-2.2,2.4-4.1,5.1-5.7,8.2l-0.1,0.2l-0.2,0c-0.8-0.1-2.1-0.1-3.6,0.2
		c0,0-0.4,0.1-0.4,0.1c-1,0.2-1.9,0.5-2.9,0.8l-0.4,0.2c-0.9,0.4-1.8,0.7-2.6,1.3c-1,0.6-1.9,1.3-2.9,2.2l-1.3,1.4
		c-0.3,0.3-0.5,0.7-0.8,1.1l-0.3,0.5c-0.8,1.2-1.4,2.3-1.8,3.3c-0.5,1.1-0.8,2.2-1,3.5c-0.2,0.8-0.2,1.6-0.3,2.3c0,0.4,0,0.7-0.1,1
		c0,1,0.1,2,0.2,2.9c0.2,0.9,0.3,1.7,0.5,2.4c0.1,0.5,0.3,0.9,0.4,1.3l0.4,1.1l-0.1,0.2c-1.2,0.9-2.2,1.7-3,2.6
		c-2.1,2.1-4.4,5.1-6.1,8.1c-1.7,3.4-2.8,6.5-3.5,9.8c-0.6,3.3-0.7,6.7-0.4,9.9c0.1,1,0.3,2,0.5,3l0,0.2l-0.2,0.1
		c-0.8,0.3-2.1,0.8-3.5,1.8c-0.8,0.5-1.6,1.2-2.3,1.9l-0.3,0.4c-0.6,0.7-1.3,1.4-1.8,2.2c-0.7,0.9-1.3,2.1-1.8,3.2l-0.7,1.8
		c-0.1,0.4-0.2,0.8-0.3,1.3l-0.1,0.6c-0.2,1.4-0.3,2.7-0.3,3.8c0,1.2,0.2,2.4,0.5,3.6c0.1,0.8,0.4,1.5,0.7,2.2
		c0.1,0.3,0.2,0.7,0.4,1c0.4,0.9,0.9,1.8,1.4,2.6c0.5,0.8,1,1.4,1.4,2c0.3,0.4,0.6,0.7,0.9,1l0.4,0.4c0.3,0.3,0.6,0.6,0.8,0.8
		l0.2,0.2l-0.1,0.2c-0.3,0.5-0.6,1-0.9,1.5c-1.5,2.4-2.6,5.3-3.4,8.6c-0.8,3.2-1.1,6.5-0.9,9.9l0,0.4c0.2,1.5,0.3,3.1,0.7,4.7
		c0.3,1.4,0.6,2.4,1,3.5c0.1,0.4,0.3,0.9,0.5,1.4c1.4,3.4,3.2,6.4,5.1,8.9c2.1,2.7,4.6,4.9,7.3,6.8c0.3,0.2,0.7,0.4,1,0.6l0.4,0.3
		l0,0.8c0,1,0.2,3.1,0.9,5.9c0.7,2.6,1.9,5.4,3.4,7.9c0.3,0.4,0.6,0.9,0.9,1.3l0.5,0.7c0.5,0.6,1,1.3,1.6,1.9l1.9,1.8
		c0.4,0.3,0.9,0.7,1.4,1l0.7,0.5c1,0.7,2.1,1.2,3.2,1.7c0.5,0.2,1,0.4,1.4,0.6c1,0.4,2.1,0.6,3.2,0.8c0.6,0.1,1.1,0.2,1.6,0.4
		c1.2,0.1,2.4,0.1,3.6,0.2l1,0c0.9,0,1.8-0.1,2.5-0.3l3.2-0.5c0.3-0.1,0.7-0.2,1-0.3l1.2-0.4l0.3,0.1c1.5,2.7,3.3,5.2,5.4,7.4
		c2.1,2.2,5.3,4.6,8.3,6.3c3.5,1.8,6.7,2.9,10.1,3.6c1,0.2,2.1,0.3,3.1,0.4l0.2,0l0.1,0.1c0.1,0.3,0.3,0.7,0.5,1.1
		c0.5,0.9,1.5,2.8,3.3,5c1.7,2.1,3.9,4.1,6.4,5.7c0.4,0.3,0.9,0.5,1.4,0.8l0.8,0.4c0.7,0.4,1.4,0.8,2.2,1l2.5,0.9
		c0.5,0.1,1.1,0.2,1.7,0.3l0.8,0.2c1.2,0.3,2.4,0.2,3.6,0.2c0.5,0,1.1,0,1.6,0c0.4,0,0.8-0.1,1.2-0.1c0.7-0.1,1.3-0.3,2-0.4
		c0.5-0.1,1.1-0.3,1.6-0.3c1.1-0.4,2.2-0.9,3.3-1.3l0.9-0.4c0.9-0.4,1.7-1,2.5-1.5c0.3-0.2,2.2-1.5,2.2-1.5c0.5-0.4,0.8-0.6,1-0.8
		l1-0.9l0.3-0.1c0.7,0.2,1.2,0.3,1.7,0.4c3.4,0.8,6.8,1.1,10.3,1c2.2-0.1,4.1-0.3,6-0.6c1.8-0.3,3.4-0.7,5-1.2
		c0.6-0.2,1.2-0.4,1.8-0.6l1.6-0.6c0.3-0.1,0.4-0.2,0.5-0.2l2.3-1.1c0.5-0.2,1.1-0.5,1.6-0.8l2.6-1.5c1.2-0.7,2.3-1.5,3.3-2.4
		c0.5-0.4,0.9-0.7,1.4-1.1c0.4-0.4,0.9-0.8,1.4-1.3c0.9-0.9,1.9-1.7,2.7-2.7l1.9-2.2l1.6-2.3c0.3-0.4,0.5-0.7,0.7-1.1l0.3-0.5
		l0.2,0.1c1.1,0.5,2.9,1.3,5.3,1.9c2.6,0.7,5.6,1,8.5,0.9c0.5,0,1-0.1,1.6-0.2l0.9-0.1c0.3,0,0.6-0.1,1-0.1c0.5-0.1,1-0.2,1.5-0.4
		l2.5-0.8c0.5-0.2,1-0.5,1.6-0.7l0.8-0.4c1.1-0.5,2.1-1.2,3-2c0.4-0.3,0.8-0.6,1.3-0.9c0.8-0.7,1.6-1.5,2.3-2.4
		c0.4-0.4,0.7-0.8,1.1-1.2c0.7-1,1.3-2,1.9-3l0.5-0.8c0.5-0.9,0.8-1.8,1.1-2.7c0.1-0.4,1-2.7,1-2.7c0.1-0.3,0.2-0.7,0.2-1l0.1-0.5
		c0.2-0.7,0.3-1.4,0.4-2l0-0.2l0.2-0.1l0.5-0.1c0.2-0.1,0.4-0.1,0.6-0.2c2.5-0.9,5-2,7.4-3.5c2.7-1.8,4.8-3.4,6.3-4.9
		c1.8-1.7,3.5-3.7,5-6c1.5-2.3,2.8-4.8,3.8-7.6l0.1-0.2l0.2,0.1c0.6,0.2,2.3,0.6,4.4,0.6c0.9,0,1.9-0.1,3-0.3l0.5-0.1
		c0.9-0.2,1.9-0.4,2.8-0.8c1.1-0.4,2.2-1,3.3-1.7l1.5-1.1c0.3-0.3,0.6-0.6,1-0.9l0.4-0.4c1-1,1.8-2,2.3-3c0.6-1,1.2-2.1,1.6-3.3
		c0.3-0.7,0.5-1.5,0.7-2.2c0.1-0.3,0.2-0.7,0.2-1c0.2-1,0.3-2,0.3-2.9c0-0.9,0-1.7-0.1-2.5c0-0.5-0.1-1-0.2-1.4l-0.2-1l0.1-0.2
		c1.5-1.2,2.6-2.3,3.6-3.4c1.6-2,3.1-4.7,3.8-6.4c1-2.7,1.5-5,1.7-7.6c0.2-2.5-0.1-4.9-0.6-7.3c-0.3-1.2-0.7-2.4-1.2-3.6l-0.1-0.2
		l0.1-0.1c0.4-0.4,0.8-0.9,1.2-1.5l1.6-2.2l1.6-2.8c0.3-0.7,0.7-1.4,1-2.1l0.5-1.2c0.3-0.8,0.6-1.6,0.8-2.5c0.1-0.5,0.3-0.9,0.4-1.4
		c0.6-2.4,1.2-5.7,1.2-9.1c0.1-3.2-0.4-6.6-1.4-10.3c-1-3.5-2.5-7-4.6-10.2c-1.8-2.8-4.7-6-7.6-8.6c-2.9-2.3-5.6-4-8.7-5.4l-0.2-0.1
		l0.1-0.2c0.4-1,0.7-2,0.9-3c0.2-0.9,0.3-1.9,0.3-3l0-0.5c0-0.9,0-1.9-0.3-2.9c-0.2-1.2-0.6-2.3-1-3.5l-0.8-1.7
		c-0.2-0.4-0.4-0.7-0.7-1.1l-0.3-0.5c-0.8-1.2-1.6-2.1-2.5-2.9c-0.8-0.8-1.8-1.6-2.9-2.2c-0.7-0.5-1.4-0.8-2.1-1.1
		c-0.3-0.1-0.6-0.3-0.9-0.4c-1-0.4-1.9-0.6-2.8-0.9c-0.9-0.2-1.7-0.3-2.4-0.4c-0.5-0.1-1-0.1-1.4-0.1l-0.5,0
		c-1.6-2.7-2.9-4.6-4.3-6.3c-1.8-2.3-4.1-4.4-6.8-6.5c-2.4-1.6-5.3-3.4-8.6-4.6c-1.5-0.6-3.3-1.1-4.8-1.5c-1.1-0.3-2.1-0.5-3-0.6
		c-0.5-0.1-1.1-0.2-1.6-0.3c-3-0.4-5.8-0.3-9.5,0.1c-0.3,0-0.7,0.1-1,0.1c-4,0.7-8.1,2.1-11.7,4.2l-0.2,0.1l-0.1-0.2
		c-0.2-0.2-0.4-0.5-0.7-0.8c-0.7-0.8-2.2-2.3-4.5-3.9c-2.2-1.6-4.9-3-7.6-3.9c-0.5-0.2-1-0.3-1.5-0.4l-0.8-0.2
		c-0.8-0.2-1.6-0.4-2.4-0.4l-2.6-0.2c-0.6,0-1.1,0.1-1.7,0.1l-0.9,0.1c-0.4,0-0.7,0.1-1.1,0.1c-0.8,0.1-1.6,0.4-2.5,0.6
		c-0.5,0.2-1,0.3-1.5,0.4c-1,0.3-2,0.9-3,1.4c-0.5,0.3-1,0.5-1.5,0.7c-1,0.7-2,1.4-2.9,2.2l-0.8,0.6c-0.8,0.6-1.4,1.4-2,2.1
		c-0.3,0.3-1.9,2.2-1.9,2.2c-0.1,0.1-0.2,0.4-0.2,0.4l-0.2,0.2l-1.7,0.2c-0.9,0.2-1.7,0.3-2.5,0.5c-2.6,0.7-5.1,1.7-7.4,3.1
		l-0.3,0.1l-0.1-0.3c-0.1-0.2-0.3-0.7-0.7-1.3c-0.3-0.5-1.2-2-2.7-3.4c-0.7-0.7-1.5-1.3-2.3-1.9l-0.4-0.2c-0.8-0.5-1.6-1-2.6-1.3
		c-1.1-0.5-2.3-0.8-3.5-1l-1.9-0.2c-0.4,0-0.9,0-1.3,0l-0.6,0C118.4,88.7,117.6,88.8,116.9,88.9z"/>
	<g>
		<g>
			<g>
				<g>
					<path class="st1" d="M178.5,282.2c0,0,3.2,0.7,8,0.9c1.2,0,2.4,0.1,3.8,0c1.3,0,2.7-0.3,4.1-0.4c1.4-0.3,2.8-0.5,4.2-1l2.1-0.7
						c0.7-0.3,1.3-0.7,2-1c1.4-0.5,2.5-1.6,3.7-2.3c1.1-0.9,2.1-2,3.2-2.9c0.9-1.1,1.7-2.2,2.6-3.2c0.8-1.1,1.4-2.2,2-3.2
						c0.6-1,1.2-1.9,1.6-2.8c0.4-0.9,0.8-1.6,1.1-2.3c0.7-1.3,1.1-2,1.1-2s-0.1,0.8-0.3,2.2c-0.1,0.7-0.3,1.6-0.4,2.6
						c-0.1,1-0.5,2.1-0.9,3.3c-0.5,1.2-0.8,2.5-1.5,3.8c-0.7,1.2-1.5,2.6-2.4,3.9c-1.1,1.2-2.1,2.6-3.4,3.6c-1.4,1-2.7,2.2-4.3,2.9
						c-0.8,0.4-1.6,0.8-2.4,1.1l-2.5,0.8c-1.6,0.5-3.3,0.6-4.9,0.8c-3.2,0.1-6.2-0.2-8.6-0.9C181.2,284.2,178.5,282.2,178.5,282.2z"
						/>
				</g>
			</g>
			<g>
				<g>
					<path class="st1" d="M188.4,94.1c0,0-2.8-1.8-7.1-3.7c-1.1-0.4-2.3-0.9-3.5-1.4c-1.2-0.5-2.6-0.7-4-1.1
						c-1.4-0.2-2.8-0.5-4.3-0.6l-2.2-0.1c-0.7,0-1.5,0.2-2.2,0.2c-1.5,0-2.9,0.6-4.3,0.8c-1.4,0.5-2.7,1.1-4,1.6
						c-1.2,0.7-2.4,1.4-3.6,2.1c-1.1,0.7-2.1,1.6-3,2.2c-1,0.7-1.8,1.3-2.5,2c-0.7,0.7-1.4,1.2-1.9,1.7c-1.1,0.9-1.7,1.5-1.7,1.5
						s0.4-0.7,1.1-2c0.4-0.6,0.8-1.4,1.4-2.2c0.5-0.9,1.2-1.8,2.1-2.7c0.8-0.9,1.7-2,2.8-3c1.1-0.9,2.3-1.9,3.7-2.8
						c1.5-0.7,2.9-1.6,4.5-2.1c1.7-0.4,3.3-1.1,5.1-1.2c0.9-0.1,1.7-0.2,2.6-0.2l2.6,0.2c1.7,0.1,3.3,0.7,4.9,1c3,1,5.7,2.5,7.7,3.9
						C186.6,91.3,188.4,94.1,188.4,94.1z"/>
				</g>
			</g>
			<g>
				<g>
					<path class="st1" d="M239.8,241.1c0,0,0.6-0.1,1.6-0.3c1.1-0.2,2.4-0.4,4-0.9c1.6-0.5,3.4-1.1,5.1-2.1c0.9-0.4,1.7-1.1,2.6-1.7
						c0.8-0.6,1.6-1.3,2.3-2.1c0.7-0.7,1.4-1.5,2-2.4c0.6-0.8,1.2-1.7,1.6-2.6c0.5-0.9,0.9-1.8,1.3-2.6c0.3-0.9,0.6-1.7,1-2.5
						c0.5-1.6,0.9-3,1.1-4c0.3-1,0.4-1.6,0.4-1.6s0.2,0.6,0.4,1.6c0.3,1,0.4,2.6,0.4,4.4c-0.1,0.9-0.2,1.9-0.3,3
						c-0.3,1-0.4,2.2-1,3.3c-0.4,1.1-0.9,2.3-1.7,3.3c-0.7,1.1-1.5,2.1-2.4,3c-0.9,0.9-1.9,1.7-3,2.4c-1.1,0.7-2.2,1.3-3.3,1.7
						c-1.1,0.5-2.2,0.7-3.3,0.9c-1.1,0.2-2.1,0.3-3,0.3c-1.9,0-3.4-0.3-4.4-0.6C240.3,241.3,239.8,241.1,239.8,241.1z"/>
				</g>
			</g>
			<g>
				<g>
					<path class="st1" d="M255.3,135.6c0,0,0-0.6,0.1-1.7c0-1.1,0-2.4-0.1-4.1c-0.2-1.7-0.5-3.6-1.1-5.4c-0.2-1-0.8-1.9-1.1-2.8
						c-0.5-0.9-1-1.8-1.6-2.7c-0.6-0.9-1.2-1.7-1.9-2.4c-0.7-0.7-1.4-1.5-2.2-2.1c-0.7-0.7-1.6-1.2-2.3-1.8c-0.8-0.5-1.6-1-2.3-1.4
						c-1.5-0.8-2.8-1.5-3.7-1.9c-0.9-0.4-1.5-0.7-1.5-0.7s0.6,0,1.7,0c1.1,0,2.6,0.1,4.4,0.5c0.9,0.2,1.9,0.5,2.9,0.9
						c1,0.5,2.1,0.9,3,1.6c1,0.6,2,1.3,2.9,2.3c0.9,0.9,1.8,1.9,2.5,2.9c0.7,1.1,1.3,2.2,1.8,3.4c0.5,1.2,0.8,2.4,1,3.6
						c0.3,1.2,0.3,2.3,0.3,3.4c-0.1,1.1-0.1,2.1-0.3,3c-0.3,1.8-1,3.3-1.4,4.2C255.6,135,255.3,135.6,255.3,135.6z"/>
				</g>
			</g>
			<g>
				<g>
					<path class="st1" d="M135.6,98.2c0,0-0.5-0.3-1.4-0.9c-0.9-0.6-2-1.3-3.5-2.1c-1.5-0.7-3.3-1.5-5.2-2c-0.9-0.3-2-0.4-3-0.6
						c-1-0.1-2.1-0.2-3.1-0.1c-1,0-2.1,0.1-3.1,0.3c-1,0.2-2,0.4-3,0.7c-1,0.3-1.9,0.7-2.8,1c-0.8,0.4-1.7,0.8-2.4,1.2
						c-1.4,0.9-2.8,1.5-3.6,2.1c-0.9,0.5-1.4,0.8-1.4,0.8s0.3-0.5,0.9-1.4c0.5-0.9,1.5-2.1,2.8-3.4c0.7-0.6,1.4-1.3,2.3-1.9
						c0.9-0.5,1.8-1.3,2.9-1.7c1.1-0.5,2.2-1,3.5-1.3c1.2-0.3,2.5-0.5,3.8-0.6c1.3,0,2.6,0.1,3.8,0.3c1.2,0.2,2.5,0.6,3.6,1.1
						c1.1,0.4,2.1,1,3,1.6c0.9,0.6,1.7,1.2,2.4,1.9c1.4,1.3,2.3,2.6,2.8,3.5C135.3,97.6,135.6,98.2,135.6,98.2z"/>
				</g>
			</g>
			<g>
				<g>
					<path class="st1" d="M57.8,114.9c0,0-0.6,0.2-1.6,0.5c-1,0.3-2.3,0.9-3.8,1.6c-1.5,0.8-3.1,1.7-4.7,3c-0.8,0.6-1.5,1.4-2.2,2.1
						c-0.7,0.8-1.4,1.6-1.9,2.5c-0.6,0.9-1.1,1.8-1.6,2.7c-0.4,0.9-0.9,1.9-1.2,2.8c-0.4,0.9-0.5,1.9-0.8,2.8
						c-0.1,0.9-0.3,1.8-0.5,2.7c-0.2,1.7-0.4,3.1-0.4,4.2c-0.1,1-0.2,1.7-0.2,1.7s-0.3-0.5-0.6-1.5c-0.4-1-0.8-2.4-1.1-4.3
						c-0.1-0.9-0.2-1.9-0.2-3c0.1-1.1,0-2.2,0.4-3.4c0.2-1.2,0.5-2.4,1-3.5c0.5-1.2,1.1-2.3,1.8-3.4c0.7-1.1,1.6-2,2.5-2.9
						c0.9-0.9,1.9-1.6,3-2.2c1-0.7,2.1-1.1,3.1-1.5c1-0.3,2-0.7,2.9-0.8c1.8-0.3,3.4-0.3,4.5-0.2C57.2,114.8,57.8,114.9,57.8,114.9z
						"/>
				</g>
			</g>
			<g>
				<g>
					<path class="st1" d="M28.1,173.4c0,0-0.4,0.4-1.2,1.1c-0.8,0.7-1.8,1.7-2.8,3c-1.1,1.3-2.2,2.8-3.1,4.6
						c-0.5,0.9-0.8,1.9-1.2,2.8c-0.3,1-0.6,2-0.8,3c-0.2,1-0.4,2.1-0.4,3.1c0,1,0,2.1,0.1,3.1c0.1,1,0.3,2,0.4,2.9
						c0.2,0.9,0.4,1.8,0.6,2.6c0.5,1.6,0.9,3,1.3,4c0.3,1,0.5,1.6,0.5,1.6s-0.5-0.4-1.2-1.1c-0.8-0.7-1.7-1.9-2.8-3.5
						c-0.5-0.8-0.9-1.7-1.4-2.7c-0.3-1-0.9-2.1-1-3.2c-0.3-1.2-0.5-2.4-0.5-3.7c0-1.3,0.1-2.6,0.3-3.8c0.2-1.3,0.6-2.5,1.1-3.7
						c0.5-1.2,1.1-2.3,1.8-3.2c0.6-1,1.5-1.8,2.2-2.6c0.8-0.7,1.6-1.4,2.4-1.9c1.5-1,3-1.7,4-2C27.5,173.5,28.1,173.4,28.1,173.4z"
						/>
				</g>
			</g>
			<g>
				<g>
					<path class="st1" d="M92.5,292.8c0,0,2.2,2.4,5.9,5.4c0.9,0.7,1.9,1.5,3.1,2.2c1.1,0.8,2.3,1.4,3.5,2.1c1.3,0.6,2.6,1.2,4,1.7
						l2.1,0.7c0.7,0.1,1.5,0.2,2.2,0.3c1.4,0.4,2.9,0.2,4.4,0.3c1.4-0.1,2.9-0.3,4.3-0.5c1.4-0.4,2.7-0.7,4-1.1
						c1.3-0.4,2.4-1,3.5-1.4c1.1-0.4,2.1-0.8,3-1.3c0.9-0.4,1.6-0.8,2.3-1.2c1.3-0.6,2-1,2-1s-0.5,0.6-1.6,1.6
						c-0.5,0.5-1.2,1.1-1.9,1.8c-0.7,0.7-1.6,1.4-2.7,2.1c-1.1,0.7-2.1,1.5-3.5,2.1c-1.3,0.6-2.8,1.2-4.3,1.7
						c-1.6,0.3-3.2,0.8-4.9,0.9c-1.7,0-3.5,0.2-5.2-0.2c-0.9-0.2-1.7-0.3-2.6-0.5l-2.5-0.8c-1.6-0.5-3-1.5-4.4-2.3
						c-2.7-1.8-4.8-3.8-6.4-5.8C93.5,296,92.5,292.8,92.5,292.8z"/>
				</g>
			</g>
			<g>
				<g>
					<path class="st1" d="M32,250.3c0,0,1,3.2,3.1,7.4c0.6,1,1.1,2.2,1.9,3.3c0.6,1.2,1.5,2.2,2.3,3.4c0.9,1.1,1.8,2.2,2.9,3.2
						l1.6,1.5c0.6,0.4,1.2,0.8,1.8,1.2c1.1,1,2.6,1.4,3.9,2.1c1.4,0.5,2.8,0.9,4.1,1.4c1.4,0.2,2.8,0.4,4.1,0.7
						c1.3,0.2,2.6,0.1,3.8,0.2c1.2,0.1,2.3,0.1,3.2,0c1,0,1.8-0.1,2.5-0.1c1.4,0,2.3,0,2.3,0s-0.7,0.3-2.1,0.8
						c-0.7,0.2-1.5,0.5-2.5,0.9c-0.9,0.4-2.1,0.6-3.3,0.8c-1.2,0.2-2.6,0.5-4,0.5c-1.5,0-3,0-4.6-0.2c-1.6-0.4-3.3-0.6-4.9-1.2
						c-1.5-0.7-3.3-1.3-4.7-2.3c-0.7-0.5-1.4-1-2.1-1.5l-1.9-1.8c-1.3-1.2-2.1-2.6-3.1-3.9c-1.7-2.7-2.8-5.5-3.4-7.9
						C31.6,253.6,32,250.3,32,250.3z"/>
				</g>
			</g>
		</g>
		<g>
			<g>
				<g>
					<path class="st1" d="M52.4,136.2c0,0-0.1-0.4-0.2-1.1c-0.1-0.7-0.3-1.8-0.3-3.1c-0.1-2.7,0-6.8,1.4-11.4
						c1.3-4.6,4-9.8,8.2-14.3c2.1-2.2,4.5-4.3,7.2-6.1c1.4-0.8,2.8-1.7,4.3-2.3l1.1-0.5l0.7-0.3l0.5-0.2l2.2-0.8
						c3.2-1,6.5-1.7,9.7-1.8c3.2-0.3,6.4,0.1,9.4,0.7c3,0.5,5.8,1.6,8.3,2.7c2.5,1.2,4.8,2.6,6.6,4.1c1.9,1.4,3.5,3,4.8,4.4
						c1.3,1.4,2.3,2.8,3,4c0.8,1.1,1.2,2.1,1.6,2.8c0.3,0.6,0.5,1,0.5,1s-0.3-0.3-0.8-0.8c-0.5-0.5-1.2-1.3-2.2-2.2
						c-0.9-0.9-2.2-2-3.6-3.1c-1.4-1.1-3.1-2.3-5.1-3.4c-1.9-1.1-4.1-2-6.5-2.9c-2.4-0.7-4.9-1.5-7.6-1.8c-2.7-0.4-5.5-0.4-8.3-0.2
						c-2.8,0.2-5.6,0.8-8.2,1.7l-2.2,0.8l-0.5,0.2c0.1,0-0.3,0.1-0.4,0.2l-1,0.4c-1.3,0.5-2.5,1.3-3.8,1.9c-2.4,1.5-4.6,3.1-6.6,5
						c-1.9,1.9-3.7,3.9-5.1,5.9c-1.4,2.1-2.7,4.1-3.5,6.1c-1.9,4-2.8,7.7-3.3,10.3c-0.3,1.3-0.4,2.4-0.5,3.1
						C52.5,135.8,52.4,136.2,52.4,136.2z"/>
				</g>
			</g>
			<g>
				<g>
					<path class="st1" d="M112.4,287.6c0,0,1.4,1.2,4,3.1c1.3,0.9,2.9,1.9,4.8,2.9c1.9,1,4.2,2,6.7,2.9c5,1.7,11.2,2.7,17.6,2.1
						c3.2-0.3,6.5-1,9.7-2c0.8-0.3,1.6-0.6,2.4-0.9l0.6-0.2c0,0,0.3-0.2,0.5-0.2l1.2-0.6c0.8-0.4,1.7-0.8,2.4-1.2l2.1-1.3
						c1.4-0.8,2.8-1.9,4.2-2.9c1.2-1.2,2.6-2.2,3.7-3.5c2.4-2.4,4.3-5.2,6-7.9c1.5-2.9,2.9-5.7,3.8-8.6c0.2-0.7,0.4-1.4,0.7-2.1
						c0.2-0.7,0.3-1.4,0.4-2.1c0.4-1.4,0.5-2.7,0.7-4.1c0.2-1.3,0.2-2.6,0.3-3.8c0.1-1.2,0.1-2.4,0-3.5c-0.1-2.2-0.4-4.1-0.6-5.7
						c-0.2-1.6-0.6-2.8-0.8-3.6c-0.2-0.8-0.3-1.3-0.3-1.3s0.2,0.4,0.6,1.2c0.3,0.8,1,1.9,1.5,3.4c0.5,1.5,1.3,3.4,1.6,5.7
						c0.3,1.1,0.5,2.3,0.6,3.6c0.1,1.3,0.3,2.6,0.2,4.1c0,1.4,0,2.9-0.2,4.5c-0.1,1.5-0.4,3.1-0.8,4.7c-0.7,3.2-1.9,6.5-3.5,9.8
						c-1.8,3.1-3.7,6.4-6.4,9.2c-1.2,1.5-2.7,2.7-4.1,4c-1.6,1.2-3,2.4-4.7,3.4l-2.6,1.5c-0.9,0.5-1.7,0.8-2.5,1.2l-1.2,0.6
						c-0.3,0.1-0.3,0.1-0.8,0.3l-0.7,0.2c-0.9,0.3-1.8,0.7-2.7,0.9c-3.7,1.2-7.4,1.6-11,1.8c-7.3,0.3-14-1.5-19.1-4
						c-2.6-1.2-4.8-2.6-6.6-4c-1.8-1.4-3.3-2.8-4.5-3.9C113.5,289.1,112.4,287.6,112.4,287.6z"/>
				</g>
			</g>
			<g>
				<g>
					<path class="st1" d="M174.6,106.3c0,0,0.2-0.3,0.6-1c0.4-0.6,0.9-1.6,1.7-2.7c1.6-2.2,4.3-5.3,8.3-7.9c4-2.7,9.3-5.1,15.4-5.9
						c3.1-0.4,6.1-0.6,9.6-0.1c1.5,0.3,2.9,0.3,4.6,0.8c1.7,0.4,3.3,0.8,4.8,1.5c3.1,1.1,5.9,2.9,8.6,4.7c2.6,1.9,4.9,4.1,6.9,6.5
						c2,2.3,3.5,4.9,4.7,7.4c1.2,2.5,2,5,2.6,7.4c0.5,2.4,0.8,4.5,0.8,6.5c0.2,1.9-0.1,3.6-0.2,5c-0.1,1.4-0.4,2.4-0.6,3.1
						c-0.1,0.7-0.2,1.1-0.2,1.1s-0.1-1.6-0.3-4.2c-0.2-1.3-0.3-2.9-0.8-4.7c-0.4-1.8-1-3.7-1.8-5.8c-0.8-2.1-1.9-4.2-3.2-6.3
						c-1.4-2.1-2.9-4.2-4.8-6.2c-1.8-2-4-3.7-6.3-5.4c-2.4-1.5-4.9-3-7.6-3.9c-2.6-1.1-5.2-1.7-8.3-2.2c-2.6-0.3-5.5-0.5-8.2-0.3
						c-2.7,0.2-5.3,0.6-7.7,1.3c-2.4,0.7-4.7,1.5-6.6,2.5c-4,1.9-7,4.3-9,6c-1,0.9-1.8,1.6-2.3,2.1
						C174.8,106,174.6,106.3,174.6,106.3z"/>
				</g>
			</g>
			<g>
				<g>
					<path class="st1" d="M242.7,223.6c0,0,0.1,0.3,0.2,0.9c0.1,0.6,0.3,1.5,0.4,2.6c0.2,2.3,0.3,5.6-0.5,9.5
						c-0.7,3.9-2.4,8.4-5.3,12.7c-1.4,2.1-3.1,4.2-5,6c-1.9,1.9-4.2,3.5-6.4,4.9c-4.9,2.9-10,4.7-15.1,5.2c-2.5,0.4-5,0.2-7.3,0.1
						c-2.3-0.2-4.4-0.7-6.4-1.2c-3.8-1.1-6.8-2.7-8.7-4c-1-0.6-1.6-1.2-2.1-1.6c-0.5-0.4-0.7-0.6-0.7-0.6s1.2,0.5,3.3,1.2
						c2.1,0.7,5.2,1.4,8.8,1.9c3.7,0.4,7.9,0.4,12.3-0.5c2.2-0.4,4.4-1.1,6.6-1.9c2.2-0.8,4.3-1.9,6.3-3.1c2.2-1.4,4-2.6,5.8-4.2
						c1.7-1.6,3.4-3.2,4.7-5c2.8-3.5,4.8-7.3,6.1-10.7c1.3-3.4,2-6.5,2.4-8.7C242.5,224.9,242.7,223.6,242.7,223.6z"/>
				</g>
			</g>
			<g>
				<g>
					<path class="st1" d="M63.1,253.3c0,0-0.4,0.2-1.1,0.5c-0.7,0.3-1.7,0.9-3.1,1.3c-0.7,0.2-1.5,0.5-2.3,0.7
						c-0.9,0.2-1.8,0.4-2.8,0.6c-2,0.3-4.3,0.5-6.9,0.3c-2.5-0.2-5.3-0.6-8.1-1.6c-2.8-0.9-5.6-2.3-8.3-4.1
						c-2.7-1.8-5.2-4.2-7.3-6.8c-2.1-2.8-3.8-5.7-5.2-9.1c-1-2.9-1.9-6.7-2.1-10c-0.2-3.4,0.1-6.8,0.9-10c0.8-3.2,1.9-6.1,3.4-8.6
						c1.4-2.6,3.2-4.7,4.9-6.6c1.8-1.8,3.6-3.2,5.3-4.4c0.9-0.5,1.7-1,2.5-1.4c0.8-0.4,1.5-0.7,2.2-1c1.3-0.6,2.4-0.8,3.2-1.1
						c0.7-0.2,1.1-0.3,1.1-0.3s-0.3,0.2-1,0.6c-0.6,0.4-1.6,0.9-2.8,1.8c-1.2,0.8-2.5,1.9-3.9,3.1c-1.4,1.3-2.8,2.9-4.2,4.7
						c-1.3,1.9-2.7,4-3.7,6.4c-1.1,2.4-1.8,5-2.4,7.8c-0.5,2.8-0.5,5.7-0.3,8.6c0.3,3,0.9,5.5,2.1,8.7c1,2.5,2.5,5.3,4.2,7.6
						c1.8,2.3,3.7,4.5,6,6.2c2.3,1.7,4.5,3.2,7,4.2c2.4,1.1,4.8,1.8,7,2.3c2.3,0.4,4.4,0.6,6.3,0.7c1.9,0,3.6-0.1,5-0.3
						c1.4-0.1,2.5-0.4,3.2-0.5C62.7,253.4,63.1,253.3,63.1,253.3z"/>
				</g>
			</g>
			<g>
				<g>
					<path class="st1" d="M210.8,145c0,0,0.3-0.4,0.8-1.1c0.6-0.7,1.2-1.8,2.3-2.9c0.6-0.6,1.2-1.3,1.9-2c0.8-0.6,1.6-1.3,2.5-2.1
						c1.8-1.4,4-2.8,6.6-4.1c2.6-1.2,5.6-2.3,8.9-2.8c3.3-0.7,6.8-0.8,10.5-0.5c3.6,0.3,7.4,1.3,11,2.7c3.6,1.5,6.8,3.5,10.1,6.1
						c2.6,2.3,5.6,5.5,7.6,8.7c2.1,3.3,3.6,6.8,4.6,10.3c1,3.5,1.5,7.1,1.4,10.4c0.1,3.3-0.5,6.4-1.2,9.2c-0.8,2.8-1.8,5.2-2.8,7.3
						c-0.6,1-1.1,1.9-1.6,2.8c-0.6,0.8-1.1,1.5-1.6,2.2c-0.9,1.4-1.9,2.2-2.5,2.9c-0.6,0.6-0.9,1-0.9,1s0.2-0.4,0.7-1.1
						c0.4-0.8,1.1-1.8,1.8-3.2c0.3-0.7,0.7-1.5,1.1-2.4c0.3-0.9,0.7-1.8,1.1-2.9c0.7-2.1,1.2-4.5,1.7-7.1c0.3-2.6,0.5-5.5,0.2-8.5
						c-0.2-3-1-6.1-1.9-9.1c-1-3.1-2.6-6-4.4-8.8c-2-2.8-4-5.1-6.9-7.6c-2.4-2-5.5-4-8.5-5.3c-3.1-1.3-6.3-2.4-9.5-2.8
						c-3.2-0.4-6.3-0.6-9.3-0.3c-3,0.2-5.8,0.9-8.3,1.7c-2.5,0.9-4.7,1.9-6.7,2.9c-0.9,0.6-1.8,1.1-2.6,1.6
						c-0.8,0.6-1.5,1.1-2.1,1.5c-1.3,0.9-2.2,1.8-2.9,2.4C211.2,144.7,210.8,145,210.8,145z"/>
				</g>
			</g>
			<g>
				<g>
					<path class="st1" d="M119.8,126c0,0-0.1-0.4-0.1-1.1c-0.1-0.7-0.2-1.8-0.2-3.2c0-1.4,0.3-3.1,0.8-5c0.5-1.9,1.4-3.9,2.5-6.1
						c2.4-4.2,6.2-8.6,11.4-11.9c2.6-1.6,5.6-3,8.8-3.8c0.8-0.2,1.6-0.4,2.5-0.5l2.3-0.3c1.7-0.2,3.3-0.2,4.9-0.2
						c6.5,0,13.2,2.2,18.2,5.9c5,3.7,8.2,8.5,10.1,12.9c1.9,4.4,2.6,8.3,2.8,11c0.2,2.7,0,4.2,0,4.2s-0.2-1.5-1-4.1
						c-0.7-2.5-2.1-6.1-4.4-9.8c-2.3-3.7-5.7-7.7-10.1-10.5c-4.4-2.9-10-4.3-15.6-4.3c-1.4,0-2.8,0.1-4.2,0.2l-2.2,0.3l-1.9,0.4
						c-2.6,0.6-5.1,1.7-7.4,3c-2.4,1.2-4.4,2.8-6.3,4.4c-1.9,1.6-3.4,3.4-4.9,5c-1.3,1.7-2.4,3.4-3.2,5c-0.9,1.6-1.4,3.1-1.8,4.3
						C119.9,124.3,119.9,126,119.8,126z"/>
				</g>
			</g>
			<g>
				<g>
					<path class="st1" d="M255,177.4c0,0,0.3,0.1,0.8,0.2c0.5,0.2,1.3,0.3,2.3,0.7c1,0.4,2.2,0.9,3.5,1.7c1.3,0.8,2.6,1.8,4,3.1
						c1.3,1.3,2.6,2.9,3.7,4.8c1.1,1.9,2,4,2.6,6.4c0.6,2.3,0.8,4.9,0.6,7.4c-0.2,2.6-0.8,5-1.7,7.7c-0.8,2-2.3,4.6-3.9,6.5
						c-1.6,2-3.5,3.6-5.5,5c-2,1.3-4.1,2.3-6.2,2.9c-2.1,0.7-4.1,0.9-6,1c-1.9,0-3.6-0.2-5-0.4c-1.5-0.3-2.7-0.7-3.7-1.1
						c-1-0.3-1.7-0.8-2.2-1.1c-0.5-0.3-0.7-0.4-0.7-0.4s1.2,0.2,3.2,0.4c1,0.1,2.2,0.1,3.6,0.1c1.4-0.1,2.9-0.3,4.5-0.6
						c1.6-0.4,3.3-0.9,5-1.7c1.7-0.7,3.3-1.8,4.9-3c1.6-1.2,2.9-2.7,4.2-4.3c1.3-1.7,2.1-3.2,3.1-5.5c0.6-1.7,1.3-3.9,1.5-5.9
						c0.1-2,0.2-4.1-0.1-6c-0.4-1.9-0.8-3.8-1.5-5.5c-0.7-1.7-1.6-3.2-2.4-4.6c-1-1.3-1.9-2.5-2.9-3.5c-1-1-1.9-1.8-2.7-2.4
						c-0.8-0.7-1.5-1.1-1.9-1.4C255.2,177.6,255,177.4,255,177.4z"/>
				</g>
			</g>
			<g>
				<g>
					<path class="st1" d="M44.9,196.9c0,0-0.4-0.2-1.1-0.5c-0.7-0.4-1.8-0.7-3-1.5c-0.6-0.4-1.3-0.8-2.1-1.3
						c-0.7-0.5-1.4-1.1-2.2-1.7c-1.5-1.3-3.2-2.9-4.7-5c-1.5-2-3-4.4-4-7.1c-1.2-2.7-1.9-5.7-2.3-8.9c-0.4-3.2-0.2-6.6,0.4-9.9
						c0.7-3.4,1.9-6.6,3.4-9.7c1-1.6,1.6-2.8,2.8-4.3c1-1.5,2.2-2.7,3.4-4c2.5-2.4,5.2-4.3,8.1-5.8c2.9-1.5,5.8-2.5,8.7-3
						c2.9-0.6,5.7-0.7,8.2-0.6c2.5,0.2,4.8,0.6,6.7,1.2c1,0.3,1.8,0.6,2.7,0.9c0.8,0.4,1.5,0.7,2.2,1c1.3,0.6,2.2,1.3,2.9,1.7
						c0.6,0.4,1,0.6,1,0.6s-0.4-0.1-1.1-0.4c-0.7-0.2-1.7-0.6-3.1-0.9c-1.3-0.4-3-0.6-4.9-0.9c-1.9-0.2-4-0.2-6.3-0.1
						c-2.3,0.2-4.7,0.6-7.2,1.4c-2.5,0.7-5,1.9-7.4,3.3c-2.4,1.4-4.6,3.3-6.7,5.3c-2,2.1-3.6,4.4-5.2,7.1c-1.4,2.6-2.5,5.4-3.1,8.2
						c-0.5,2.8-0.9,5.7-0.7,8.5c0.2,2.8,0.5,5.5,1.4,8c0.7,2.5,1.8,4.7,2.8,6.8c1.2,2,2.4,3.7,3.6,5.2c1.3,1.4,2.4,2.7,3.4,3.6
						c1,1,1.9,1.6,2.5,2.1C44.6,196.6,44.9,196.9,44.9,196.9z"/>
				</g>
			</g>
			<g>
				<g>
					<path class="st1" d="M127,273.7c0,0-0.2,0.4-0.5,1.1c-0.4,0.7-0.7,1.8-1.5,3.1c-0.4,0.6-0.8,1.4-1.3,2.1
						c-0.6,0.7-1.2,1.5-1.8,2.3c-1.4,1.6-3.1,3.3-5.2,4.9c-2.1,1.5-4.6,3.1-7.4,4.2c-2.8,1.2-5.9,2-9.3,2.4
						c-3.3,0.4-6.8,0.2-10.3-0.4c-3.5-0.7-6.7-1.9-10.2-3.6c-2.7-1.6-6-3.9-8.4-6.4c-2.5-2.5-4.5-5.4-6-8.4c-1.5-3-2.6-6-3.1-9
						c-0.7-3-0.7-5.9-0.6-8.5c0.2-2.6,0.7-5,1.2-7c0.3-1,0.7-1.9,0.9-2.8c0.4-0.8,0.7-1.6,1-2.2c0.6-1.4,1.3-2.3,1.7-3
						c0.4-0.7,0.6-1,0.6-1s-0.1,0.4-0.4,1.1c-0.2,0.8-0.7,1.8-1,3.2c-0.4,1.4-0.7,3.1-1,5.1c-0.2,2-0.3,4.2-0.1,6.6
						c0.2,2.4,0.6,4.9,1.4,7.5c0.7,2.6,2,5.2,3.4,7.7c1.4,2.5,3.4,4.8,5.5,7c2.2,2.2,4.4,3.7,7.5,5.4c2.5,1.3,5.5,2.5,8.4,3.1
						c3,0.6,5.9,1,8.9,0.8c2.9-0.2,5.7-0.6,8.3-1.4c2.6-0.7,4.9-1.8,7-3c2.1-1.2,3.9-2.5,5.4-3.7c1.5-1.3,2.8-2.5,3.7-3.6
						c1-1,1.7-2,2.2-2.6C126.7,274,127,273.7,127,273.7z"/>
				</g>
			</g>
		</g>
	</g>
</g>
<g>
	<path class="st0" d="M406.4,302.8c0.4,0,0.8-0.1,1.2-0.2c1-0.2,2-0.5,3.1-0.9c0.7-0.2,1.3-0.6,1.8-0.9c0.3-0.2,0.5-0.3,0.8-0.4
		c0.8-0.5,1.5-1,2.1-1.5c0.6-0.5,1.1-1.1,1.5-1.5c0.3-0.3,0.6-0.6,0.8-0.9l0.4-0.5l0.2,0.1c1.7,0.9,3.8,1.9,6.1,2.4
		c3,0.8,5.6,1.2,8.1,1.2c1.1,0,2.2,0,3.3-0.1c1.6-0.2,3.3-0.4,5.2-0.9l2.4-0.7l1.6-0.6c1.1-0.4,2.1-0.9,3.2-1.4l0.7-0.3
		c2.1-1.1,4.3-2.7,6.6-4.8c2.1-1.9,3.9-4.2,5.4-6.8l0.1-0.1l0.2,0c0.7,0.1,1.8,0.2,3.2,0.1c0,0,0.3,0,0.3,0c0.9-0.1,1.7-0.3,2.6-0.5
		l0.4-0.1c0.8-0.3,1.6-0.5,2.3-1c0.9-0.4,1.8-1.1,2.7-1.8l1.2-1.1c0.3-0.3,0.5-0.6,0.8-0.9l0.3-0.4c0.8-1,1.3-1.9,1.7-2.8
		c0.5-0.9,0.8-1.9,1.1-3c0.2-0.7,0.3-1.4,0.4-2c0-0.3,0.1-0.6,0.1-0.9c0-0.9,0-1.8,0-2.6c-0.1-0.8-0.2-1.5-0.3-2.1
		c-0.1-0.4-0.2-0.8-0.3-1.2l-0.3-0.9l0.1-0.2c1.1-0.7,2-1.4,2.8-2.1c2-1.7,4.1-4.2,5.8-6.6c1.7-2.8,2.8-5.5,3.6-8.3
		c0.7-2.9,1-5.8,0.9-8.6c0-0.9-0.1-1.8-0.2-2.6l0-0.2l0.2-0.1c0.8-0.2,1.9-0.6,3.2-1.3c0.7-0.4,1.4-0.9,2.1-1.5l0.3-0.3
		c0.6-0.5,1.2-1.1,1.7-1.8c0.7-0.8,1.2-1.7,1.7-2.7l0.7-1.5c0.1-0.3,0.2-0.7,0.3-1.1l0.2-0.5c0.3-1.2,0.5-2.3,0.5-3.3
		c0.1-1,0-2.1-0.2-3.2c-0.1-0.7-0.3-1.4-0.5-2c-0.1-0.3-0.2-0.6-0.3-0.9c-0.3-0.8-0.7-1.6-1-2.4c-0.4-0.7-0.8-1.3-1.1-1.8
		c-0.2-0.4-0.5-0.7-0.7-0.9l-0.3-0.4c-0.3-0.3-0.5-0.6-0.7-0.8l-0.1-0.1l0.1-0.2c0.3-0.4,0.6-0.8,0.9-1.2c1.4-2,2.6-4.5,3.5-7.3
		c0.9-2.7,1.3-5.6,1.4-8.6l0-0.4c0-1.3-0.1-2.7-0.3-4.1c-0.1-1.2-0.4-2.1-0.6-3.1c-0.1-0.4-0.2-0.8-0.3-1.3c-1-3.1-2.4-5.8-3.9-8.1
		c-1.7-2.4-3.7-4.6-5.9-6.3c-0.3-0.2-0.5-0.4-0.8-0.6l-0.4-0.3l0-0.7c0-0.9,0-2.7-0.5-5.2c-0.4-2.3-1.3-4.8-2.5-7
		c-0.2-0.4-0.5-0.8-0.7-1.2l-0.4-0.6c-0.4-0.6-0.8-1.2-1.3-1.7l-1.5-1.7c-0.4-0.3-0.8-0.7-1.2-1l-0.6-0.5c-0.8-0.7-1.7-1.2-2.7-1.7
		c-0.4-0.2-0.8-0.4-1.2-0.6c-0.9-0.4-1.8-0.7-2.7-0.9c-0.5-0.1-0.9-0.3-1.4-0.4c-1-0.2-2.1-0.3-3.1-0.3l-0.9-0.1
		c-0.8,0-1.5,0-2.2,0.1l-2.9,0.3c-0.3,0-0.6,0.1-0.9,0.2l-1.1,0.3l-0.3-0.1c-1.1-2.4-2.6-4.7-4.3-6.7c-1.7-2-4.3-4.3-6.9-6
		c-2.9-1.7-5.7-2.9-8.6-3.7c-0.9-0.2-1.8-0.4-2.7-0.5l-0.1,0l0-0.1c-0.1-0.3-0.2-0.6-0.4-1c-0.3-0.8-1.1-2.5-2.6-4.5
		c-1.4-2-3.2-3.8-5.2-5.4c-0.4-0.3-0.7-0.5-1.1-0.8l-0.6-0.4c-0.6-0.4-1.2-0.8-1.9-1l-2.1-0.9c-0.5-0.1-1-0.3-1.5-0.4l-0.7-0.2
		c-1-0.3-2.1-0.4-3.1-0.4c-0.5,0-0.9,0-1.4-0.1c-0.4,0-0.7,0-1.1,0.1c-0.6,0.1-1.2,0.2-1.8,0.2c-0.5,0.1-1,0.2-1.4,0.2
		c-1,0.3-2,0.6-3,1l-0.8,0.3c-0.8,0.3-1.5,0.7-2.2,1.1c-0.3,0.2-2,1.1-2,1.1c-0.5,0.3-0.7,0.5-0.9,0.7l-0.9,0.7l-0.3,0.1
		c-0.6-0.2-1-0.3-1.4-0.5c-2.9-0.9-5.9-1.4-8.9-1.5c-1.9-0.1-3.6,0-5.3,0.1c-1.5,0.1-3,0.4-4.4,0.7c-0.5,0.1-1.1,0.3-1.6,0.4
		l-1.4,0.4c-0.3,0.1-0.4,0.1-0.5,0.2l-2.1,0.8c-0.5,0.2-1,0.4-1.5,0.6l-2.3,1.2c-1.1,0.5-2.1,1.2-3,1.9c-0.4,0.3-0.8,0.6-1.3,0.8
		c-0.4,0.3-0.8,0.7-1.3,1c-0.9,0.7-1.8,1.4-2.5,2.2l-1.8,1.8l-1.5,1.9c-0.3,0.3-0.5,0.6-0.7,0.9l-0.3,0.4l-0.2-0.1
		c-0.9-0.5-2.4-1.3-4.5-2c-2.3-0.8-4.8-1.2-7.4-1.3c-0.5,0-0.9,0-1.4,0.1l-0.8,0c-0.3,0-0.6,0-0.8,0.1c-0.4,0-0.9,0.1-1.3,0.2
		l-2.2,0.5c-0.5,0.2-0.9,0.3-1.4,0.5l-0.7,0.3c-1,0.4-1.9,0.9-2.7,1.5c-0.4,0.3-0.8,0.5-1.2,0.7c-0.8,0.6-1.5,1.3-2.1,1.9
		c-0.3,0.3-0.7,0.7-1,1c-0.7,0.8-1.3,1.7-1.8,2.5l-0.5,0.7c-0.5,0.7-0.8,1.5-1.1,2.2c-0.1,0.3-1,2.3-1,2.3c-0.1,0.3-0.2,0.6-0.2,0.9
		l-0.1,0.5c-0.2,0.6-0.3,1.2-0.4,1.7l0,0.1l-0.2,0.1l-0.4,0.1c-0.2,0-0.4,0.1-0.6,0.1c-2.3,0.6-4.4,1.5-6.7,2.6
		c-2.5,1.4-4.3,2.6-5.8,3.9c-1.7,1.4-3.2,3-4.7,4.9c-1.5,1.9-2.7,4-3.7,6.4l-0.1,0.2l-0.2-0.1c-0.5-0.2-1.9-0.7-3.8-0.8
		c-0.8-0.1-1.7,0-2.6,0l-0.4,0.1c-0.8,0.1-1.6,0.2-2.5,0.5c-1,0.3-2,0.7-3,1.3l-1.4,0.9c-0.3,0.2-0.6,0.5-0.9,0.7l-0.4,0.3
		c-0.9,0.9-1.7,1.7-2.2,2.4c-0.6,0.8-1.2,1.7-1.6,2.7c-0.3,0.6-0.5,1.3-0.7,1.9c-0.1,0.3-0.2,0.6-0.3,0.9c-0.2,0.9-0.3,1.7-0.5,2.5
		c-0.1,0.8-0.1,1.5-0.1,2.2c0,0.4,0,0.8,0.1,1.2l0.1,0.9l-0.1,0.2c-1.4,0.9-2.4,1.8-3.3,2.8c-1.6,1.6-3,3.9-3.7,5.4
		c-1,2.3-1.6,4.3-1.9,6.5c-0.3,2.1-0.2,4.3,0.1,6.4c0.2,1,0.4,2.1,0.8,3.2l0,0.1l-0.1,0.1c-0.4,0.3-0.8,0.7-1.2,1.3l-1.5,1.8
		l-1.5,2.3c-0.3,0.6-0.7,1.2-1,1.8l-0.5,1c-0.3,0.7-0.6,1.4-0.9,2.1c-0.1,0.4-0.3,0.8-0.5,1.2c-0.6,2.1-1.4,4.9-1.6,7.9
		c-0.3,2.8-0.1,5.8,0.6,9.1c0.6,3.1,1.8,6.2,3.4,9.2c1.4,2.6,3.7,5.5,6.1,8c2.4,2.1,4.7,3.8,7.2,5.2l0.2,0.1l-0.1,0.2
		c-0.4,0.8-0.7,1.7-1,2.6c-0.2,0.8-0.4,1.7-0.5,2.6l0,0.4c0,0.8-0.1,1.7,0.1,2.5c0.1,1,0.4,2.1,0.7,3.1l0.6,1.6
		c0.2,0.3,0.3,0.7,0.5,1l0.3,0.5c0.7,1.1,1.3,1.9,2,2.6c0.7,0.8,1.5,1.5,2.4,2.1c0.6,0.4,1.2,0.8,1.7,1.1c0.3,0.1,0.5,0.3,0.8,0.4
		c0.8,0.4,1.6,0.7,2.4,0.9c0.8,0.2,1.5,0.4,2.1,0.5c0.4,0.1,0.8,0.1,1.2,0.2l0.4,0c1.2,2.4,2.2,4.2,3.4,5.7c1.4,2.1,3.3,4.1,5.6,6.1
		c2,1.6,4.4,3.3,7.2,4.5c1.3,0.7,2.8,1.1,4.1,1.6c0.9,0.3,1.8,0.5,2.6,0.7c0.5,0.1,0.9,0.2,1.4,0.3c2.6,0.5,5,0.6,8.3,0.4
		c0.3,0,0.6,0,0.9-0.1c3.6-0.3,7.2-1.4,10.5-2.9l0.2-0.1l0.1,0.2c0.2,0.2,0.3,0.5,0.6,0.7c0.5,0.7,1.7,2.1,3.7,3.7
		c1.8,1.5,4.1,2.9,6.4,3.8c0.4,0.2,0.9,0.3,1.3,0.4l0.7,0.2c0.7,0.2,1.4,0.4,2.1,0.5l2.3,0.3c0.5,0,1,0,1.5,0l0.7,0
		c0.3,0,0.6,0,0.9,0c0.7-0.1,1.5-0.2,2.2-0.4c0.4-0.1,0.9-0.2,1.3-0.3c0.9-0.2,1.8-0.6,2.7-1c0.4-0.2,0.9-0.4,1.3-0.6
		c0.9-0.5,1.8-1.1,2.6-1.7l0.7-0.5c0.7-0.5,1.3-1.1,1.9-1.7c0.2-0.2,1.8-1.8,1.8-1.8c0.1-0.1,0.2-0.3,0.2-0.3l0.2-0.1l1.5-0.1
		c0.8-0.1,1.5-0.2,2.2-0.3c2.3-0.4,4.5-1.2,6.7-2.2l0.2-0.1l0.1,0.2c0.1,0.2,0.2,0.6,0.5,1.2c0.2,0.5,0.9,1.8,2.2,3.1
		c0.5,0.6,1.2,1.2,1.9,1.8l0.3,0.2c0.7,0.5,1.4,1,2.2,1.3c0.9,0.5,1.9,0.8,3,1.1l1.6,0.3c0.4,0,0.8,0.1,1.2,0.1l0.5,0
		C405,302.8,405.7,302.8,406.4,302.8z"/>
	<g>
		<g>
			<g>
				<g>
					<path class="st1" d="M364.3,130.7c0,0-2.8-0.8-6.9-1.2c-1-0.1-2.1-0.2-3.3-0.2c-1.2-0.1-2.4,0.1-3.6,0.1
						c-1.2,0.2-2.5,0.3-3.7,0.6l-1.9,0.5l-1.8,0.8c-1.2,0.4-2.2,1.2-3.4,1.8c-1,0.7-2,1.6-2.9,2.3c-0.8,0.9-1.7,1.8-2.4,2.6
						c-0.7,0.9-1.3,1.8-1.9,2.6c-0.6,0.8-1.2,1.6-1.6,2.4c-0.4,0.7-0.8,1.4-1.1,1.9c-0.7,1.1-1.1,1.7-1.1,1.7s0.1-0.7,0.4-1.9
						c0.3-1.2,0.6-3,1.6-5c0.5-1,0.9-2.1,1.6-3.2c0.7-1,1.5-2.2,2.3-3.3c1-1,2-2.1,3.2-3c1.3-0.8,2.5-1.8,3.9-2.3
						c0.7-0.3,1.4-0.6,2.1-0.8l2.2-0.5c1.5-0.4,2.9-0.3,4.3-0.4c2.8,0.1,5.4,0.6,7.4,1.3C362,128.9,364.3,130.7,364.3,130.7z"/>
				</g>
			</g>
			<g>
				<g>
					<path class="st1" d="M344.4,294c0,0,2.3,1.7,6,3.6c0.9,0.5,1.9,1,3,1.4c1,0.5,2.2,0.8,3.4,1.2c1.2,0.3,2.4,0.6,3.7,0.8l1.9,0.2
						l1.9-0.1c1.3,0.1,2.5-0.3,3.8-0.5c1.2-0.3,2.4-0.8,3.6-1.1c1.1-0.5,2.2-1.1,3.2-1.6c1-0.6,1.9-1.2,2.8-1.8
						c0.9-0.5,1.7-1.1,2.3-1.6c0.7-0.5,1.3-1,1.7-1.4c1-0.7,1.6-1.2,1.6-1.2s-0.4,0.6-1.1,1.6c-0.8,1-1.6,2.6-3.3,4.1
						c-0.8,0.7-1.6,1.7-2.6,2.4c-1.1,0.7-2.2,1.5-3.4,2.2c-1.3,0.5-2.6,1.2-4.1,1.6c-1.5,0.3-3,0.8-4.5,0.7c-0.8,0-1.5,0-2.3,0
						l-2.2-0.3c-1.5-0.2-2.9-0.8-4.2-1.2c-2.6-1.1-4.8-2.5-6.5-3.9C345.9,296.5,344.4,294,344.4,294z"/>
				</g>
			</g>
			<g>
				<g>
					<path class="st1" d="M308.5,162.9c0,0-0.5,0.1-1.4,0.1c-0.9,0.1-2.1,0.2-3.6,0.5c-1.4,0.3-3,0.8-4.6,1.6
						c-0.8,0.3-1.5,0.9-2.3,1.3c-0.8,0.5-1.5,1-2.1,1.7c-0.7,0.6-1.3,1.2-1.9,1.9c-0.6,0.7-1.1,1.4-1.6,2.2
						c-0.5,0.7-0.8,1.5-1.3,2.2c-0.3,0.8-0.7,1.5-1,2.1c-0.5,1.4-1,2.6-1.2,3.4c-0.3,0.9-0.5,1.4-0.5,1.4s-0.1-0.5-0.2-1.4
						c-0.2-0.9-0.2-2.2-0.1-3.9c0.1-0.8,0.3-1.7,0.5-2.6c0.3-0.9,0.5-1.9,1-2.8c0.4-0.9,0.9-1.9,1.6-2.8c0.6-0.9,1.4-1.7,2.3-2.5
						c0.9-0.7,1.8-1.4,2.7-2c1-0.5,2-1,3-1.3c2-0.7,4-0.8,5.6-0.7c1.6,0.1,3,0.5,3.8,0.8C308,162.7,308.5,162.9,308.5,162.9z"/>
				</g>
			</g>
			<g>
				<g>
					<path class="st1" d="M288.7,253.9c0,0,0,0.5-0.2,1.4c-0.1,0.9-0.2,2.1-0.2,3.6c0.1,1.5,0.2,3.1,0.6,4.8
						c0.2,0.9,0.5,1.7,0.8,2.5c0.3,0.8,0.7,1.7,1.2,2.4c0.5,0.8,1,1.6,1.5,2.2c0.6,0.7,1.2,1.4,1.8,2c0.6,0.6,1.3,1.1,1.9,1.7
						c0.7,0.5,1.3,0.9,1.9,1.4c1.3,0.8,2.3,1.5,3.1,1.9c0.8,0.4,1.2,0.7,1.2,0.7s-0.5,0-1.4-0.1c-0.9,0-2.2-0.3-3.8-0.7
						c-0.8-0.3-1.6-0.6-2.4-1c-0.8-0.5-1.7-0.9-2.5-1.5c-0.8-0.6-1.7-1.3-2.4-2.1c-0.7-0.8-1.4-1.7-2-2.7c-0.6-1-1-2-1.4-3.1
						c-0.3-1.1-0.6-2.1-0.7-3.2c-0.3-2.1,0-4,0.4-5.6c0.4-1.6,1-2.8,1.5-3.6C288.3,254.3,288.7,253.9,288.7,253.9z"/>
				</g>
			</g>
			<g>
				<g>
					<path class="st1" d="M390.7,293.6c0,0,0.4,0.3,1.1,0.9c0.7,0.6,1.7,1.3,3,2.1c1.3,0.7,2.7,1.5,4.4,2c0.8,0.3,1.7,0.4,2.6,0.7
						c0.9,0.2,1.8,0.3,2.7,0.3c0.9,0,1.8,0,2.7-0.1c0.9-0.1,1.8-0.2,2.6-0.5c0.9-0.2,1.7-0.5,2.5-0.7c0.8-0.3,1.5-0.6,2.2-0.9
						c1.3-0.7,2.5-1.2,3.3-1.6c0.8-0.4,1.3-0.7,1.3-0.7s-0.3,0.4-0.8,1.2c-0.5,0.8-1.4,1.7-2.6,2.8c-0.6,0.5-1.3,1-2.1,1.5
						c-0.8,0.4-1.7,1-2.7,1.3c-1,0.4-2,0.7-3.1,0.9c-1.1,0.2-2.2,0.3-3.3,0.3c-1.1,0-2.2-0.2-3.3-0.5c-1.1-0.3-2.1-0.6-3-1.1
						c-1.9-0.9-3.4-2.2-4.5-3.4c-1.1-1.2-1.8-2.4-2.2-3.2C390.9,294.1,390.7,293.6,390.7,293.6z"/>
				</g>
			</g>
			<g>
				<g>
					<path class="st1" d="M459.4,283.7c0,0,0.5-0.2,1.4-0.4c0.9-0.2,2-0.6,3.4-1.2c1.3-0.6,2.8-1.3,4.2-2.4c0.7-0.5,1.4-1.1,2.1-1.7
						c0.7-0.6,1.3-1.3,1.8-2c0.6-0.7,1.1-1.5,1.5-2.3c0.4-0.8,0.9-1.6,1.2-2.4c0.4-0.8,0.6-1.6,0.9-2.4c0.2-0.8,0.4-1.6,0.6-2.3
						c0.2-1.5,0.5-2.7,0.6-3.6c0.1-0.9,0.2-1.4,0.2-1.4s0.2,0.5,0.5,1.4c0.3,0.9,0.6,2.2,0.7,3.8c0,0.8,0,1.7,0,2.6
						c-0.2,0.9-0.2,1.9-0.5,2.9c-0.3,1-0.6,2-1.1,3c-0.5,1-1.1,2-1.8,2.9c-0.7,0.9-1.5,1.7-2.4,2.4c-0.9,0.7-1.8,1.3-2.7,1.8
						c-1.8,1-3.8,1.5-5.4,1.7c-1.6,0.2-3,0.1-3.9-0.1C459.9,283.8,459.4,283.7,459.4,283.7z"/>
				</g>
			</g>
			<g>
				<g>
					<path class="st1" d="M488.8,234.5c0,0,0.4-0.3,1.1-0.9c0.7-0.6,1.6-1.4,2.7-2.4c1-1.1,2.1-2.3,2.9-3.9c0.5-0.7,0.8-1.6,1.2-2.4
						c0.4-0.8,0.7-1.7,0.9-2.6c0.2-0.9,0.4-1.8,0.5-2.7c0.1-0.9,0.2-1.8,0.1-2.7c0-0.9-0.1-1.7-0.2-2.6c-0.2-0.8-0.3-1.6-0.4-2.3
						c-0.4-1.4-0.6-2.7-0.9-3.5c-0.2-0.9-0.4-1.4-0.4-1.4s0.4,0.4,1,1.1c0.6,0.7,1.4,1.8,2.2,3.2c0.3,0.7,0.7,1.5,1,2.4
						c0.2,0.9,0.6,1.8,0.7,2.9c0.2,1,0.3,2.1,0.2,3.2c0,1.1-0.2,2.2-0.5,3.3c-0.3,1.1-0.7,2.1-1.2,3.1c-0.5,1-1.1,1.9-1.8,2.7
						c-1.3,1.7-2.8,2.9-4.3,3.7c-1.4,0.8-2.7,1.3-3.6,1.5C489.3,234.4,488.8,234.5,488.8,234.5z"/>
				</g>
			</g>
			<g>
				<g>
					<path class="st1" d="M439.8,126.7c0,0-1.8-2.3-4.8-5.1c-0.8-0.7-1.6-1.4-2.5-2.1c-0.9-0.8-1.9-1.3-3-2.1
						c-1.1-0.6-2.2-1.2-3.4-1.7l-1.8-0.7l-1.9-0.4c-1.2-0.4-2.5-0.3-3.8-0.5c-1.3,0-2.5,0.1-3.8,0.2c-1.2,0.2-2.4,0.5-3.5,0.7
						c-1.1,0.3-2.1,0.7-3.1,1c-1,0.3-1.9,0.6-2.7,1c-0.8,0.3-1.5,0.6-2,0.9c-1.2,0.5-1.8,0.7-1.8,0.7s0.5-0.5,1.5-1.3
						c1-0.8,2.2-2.1,4.2-3.1c1-0.5,2-1.2,3.1-1.7c1.2-0.4,2.5-0.9,3.8-1.3c1.4-0.2,2.8-0.5,4.3-0.5c1.5,0.1,3,0,4.5,0.5
						c0.7,0.2,1.5,0.4,2.2,0.6l2.1,0.9c1.4,0.6,2.6,1.5,3.7,2.2c2.2,1.7,4,3.6,5.3,5.4C439.1,123.8,439.8,126.7,439.8,126.7z"/>
				</g>
			</g>
			<g>
				<g>
					<path class="st1" d="M490,167.3c0,0-0.7-2.8-2.3-6.6c-0.4-0.9-0.9-2-1.4-3c-0.5-1.1-1.2-2-1.8-3.1c-0.7-1-1.5-2-2.4-2.9
						l-1.3-1.4l-1.5-1.2c-0.9-0.9-2.2-1.4-3.2-2c-1.1-0.5-2.3-0.9-3.5-1.4c-1.2-0.3-2.4-0.6-3.5-0.8c-1.1-0.2-2.2-0.2-3.3-0.4
						c-1-0.1-2-0.3-2.8-0.2c-0.9,0-1.6,0-2.2-0.1c-1.3-0.1-2-0.1-2-0.1s0.7-0.2,1.9-0.6c1.2-0.3,2.9-1,5.1-1.1
						c1.1-0.1,2.3-0.3,3.5-0.2c1.3,0.1,2.6,0.2,4,0.4c1.3,0.4,2.8,0.7,4.2,1.3c1.3,0.7,2.8,1.3,3.9,2.3c0.6,0.5,1.2,1,1.8,1.5
						l1.5,1.7c1,1.1,1.7,2.4,2.5,3.6c1.3,2.5,2.1,5,2.5,7.1C490.5,164.4,490,167.3,490,167.3z"/>
				</g>
			</g>
		</g>
		<g>
			<g>
				<g>
					<path class="st1" d="M465.4,265.4c0,0,0,0.3,0.1,1c0,0.6,0.2,1.6,0.1,2.8c0,2.4-0.4,5.9-1.9,9.8c-1.4,3.9-4.1,8.3-8,12
						c-2,1.8-4.2,3.5-6.7,4.9c-1.3,0.6-2.5,1.3-3.9,1.8l-1,0.4l-0.6,0.2l-0.5,0.1l-1.9,0.6c-2.8,0.6-5.8,1.1-8.6,1
						c-2.8,0-5.6-0.5-8.2-1.2c-2.6-0.6-5-1.8-7.1-2.9c-2.1-1.2-4-2.5-5.5-3.9c-1.6-1.4-2.9-2.8-3.9-4.2c-1-1.3-1.8-2.6-2.4-3.6
						c-0.6-1-0.9-1.9-1.2-2.5c-0.3-0.6-0.4-0.9-0.4-0.9s0.2,0.3,0.6,0.8c0.4,0.5,0.9,1.2,1.7,2.1c0.8,0.9,1.8,1.9,2.9,2.9
						c1.2,1.1,2.6,2.2,4.2,3.2c1.6,1.1,3.5,2,5.4,2.9c2,0.8,4.2,1.6,6.5,2c2.3,0.5,4.7,0.7,7.2,0.6c2.5,0,4.9-0.4,7.3-1l1.9-0.5
						l0.5-0.1c-0.1,0,0.2-0.1,0.3-0.1l0.9-0.3c1.2-0.4,2.3-1,3.4-1.5c2.2-1.1,4.2-2.4,6.1-3.9c1.8-1.5,3.4-3.1,4.8-4.8
						c1.3-1.7,2.6-3.4,3.4-5.1c1.9-3.4,2.9-6.5,3.5-8.8c0.3-1.1,0.5-2,0.6-2.7C465.3,265.8,465.4,265.4,465.4,265.4z"/>
				</g>
			</g>
			<g>
				<g>
					<path class="st1" d="M422.1,130c0,0-1.1-1.1-3.3-2.9c-1.1-0.9-2.4-1.9-4-2.9c-1.6-1-3.5-2-5.7-2.9c-4.3-1.8-9.6-3.1-15.2-2.9
						c-2.8,0-5.7,0.4-8.6,1.2c-0.7,0.2-1.4,0.4-2.1,0.6l-0.5,0.2c0,0-0.3,0.1-0.4,0.2l-1.1,0.4c-1.6,0.6-2.9,1.2-4.1,1.9
						c-2.6,1.4-5.1,3.1-7.2,5.1c-2.2,2-4.1,4.2-5.7,6.5c-1.5,2.4-2.9,4.8-3.8,7.2c-0.5,1.2-0.9,2.4-1.2,3.6
						c-0.4,1.2-0.6,2.4-0.8,3.5c-0.3,1.1-0.3,2.2-0.5,3.3c-0.2,1.1-0.2,2.1-0.2,3c-0.1,1.9,0.1,3.6,0.2,5c0.4,2.7,0.7,4.3,0.7,4.3
						s-0.1-0.4-0.4-1.1c-0.2-0.7-0.8-1.7-1.1-3.1c-0.3-1.4-0.8-3-1.1-5c-0.3-2-0.5-4.3-0.3-6.7c0.1-1.2,0.2-2.5,0.4-3.9
						c0.2-1.3,0.5-2.7,1-4.1c0.8-2.8,2-5.6,3.6-8.3c1.7-2.6,3.6-5.4,6.1-7.6c2.4-2.3,5.1-4.3,8.2-6c1.6-0.8,3.1-1.6,4.6-2l1.1-0.4
						c0.2-0.1,0.3-0.1,0.7-0.2l0.6-0.2c0.8-0.2,1.6-0.5,2.4-0.7c3.3-0.8,6.6-1,9.7-0.9c6.3,0.2,12.1,2.2,16.4,4.7
						c2.2,1.2,4,2.6,5.5,3.9c1.5,1.3,2.7,2.6,3.7,3.7C421.3,128.6,422.1,130,422.1,130z"/>
				</g>
			</g>
			<g>
				<g>
					<path class="st1" d="M357.2,284.2c0,0-0.2,0.3-0.6,0.8c-0.4,0.5-0.9,1.3-1.7,2.2c-1.6,1.8-4,4.3-7.7,6.4
						c-3.6,2.1-8.4,3.9-13.8,4.3c-2.7,0.2-5.4,0.1-8.3-0.5c-2.4-0.5-5.5-1.3-8.1-2.6c-2.6-1.2-5-2.8-7.2-4.6
						c-2.1-1.8-4.1-3.9-5.6-6.1c-1.6-2.1-2.8-4.5-3.7-6.7c-0.9-2.3-1.5-4.5-1.8-6.6c-0.3-2.1-0.4-4-0.3-5.7c0-1.7,0.3-3.1,0.4-4.3
						c0.2-1.2,0.5-2.1,0.7-2.7c0.2-0.6,0.3-0.9,0.3-0.9s0,1.3,0,3.7c0.1,1.2,0.1,2.6,0.4,4.1c0.2,1.6,0.7,3.3,1.2,5.2
						c0.6,1.8,1.4,3.8,2.4,5.7c1.1,1.9,2.3,3.9,3.8,5.7c1.4,1.9,3.3,3.5,5.2,5.1c2,1.5,4.1,2.9,6.4,3.8c2.2,1.1,4.4,1.8,7.1,2.4
						c2.2,0.4,4.8,0.8,7.1,0.7c4.7,0,9.1-1.1,12.7-2.5c3.6-1.4,6.4-3.3,8.2-4.7c0.9-0.7,1.7-1.3,2.1-1.7
						C357,284.4,357.2,284.2,357.2,284.2z"/>
				</g>
			</g>
			<g>
				<g>
					<path class="st1" d="M304.9,178c0,0,0-0.3-0.1-0.8c-0.1-0.5-0.2-1.3-0.2-2.3c-0.1-2,0.1-4.9,1-8.3c0.9-3.4,2.6-7.2,5.3-10.7
						c1.4-1.8,2.9-3.5,4.8-4.9c1.7-1.5,3.9-2.8,5.8-3.9c4.4-2.2,9-3.5,13.5-3.6c4.4-0.2,8.6,0.6,11.8,1.8c3.3,1.2,5.7,2.7,7.3,4
						c0.8,0.6,1.4,1.2,1.8,1.5c0.4,0.4,0.6,0.5,0.6,0.5s-1-0.5-2.8-1.2c-1.8-0.7-4.4-1.6-7.6-2.2c-3.2-0.6-6.9-0.8-10.8-0.3
						c-1.9,0.2-3.9,0.7-5.9,1.3c-1.9,0.6-3.9,1.4-5.6,2.3c-2,1-3.7,2-5.3,3.3c-1.6,1.3-3.1,2.6-4.4,4c-2.6,2.9-4.6,6-6,9
						c-1.4,2.9-2.2,5.6-2.6,7.4C305.1,176.9,304.9,178,304.9,178z"/>
				</g>
			</g>
			<g>
				<g>
					<path class="st1" d="M463,162.8c0,0,0.3-0.1,1-0.4c0.6-0.2,1.5-0.7,2.7-0.9c1.2-0.4,2.7-0.7,4.5-0.8c1.8-0.1,3.8-0.2,6,0.1
						c2.2,0.3,4.6,0.8,6.9,1.9c2.4,0.9,4.8,2.3,7,4.1c2.2,1.8,4.3,3.9,6,6.4c1.7,2.5,3,5.3,4,8.2c0.8,2.8,1.3,6,1.3,9
						c0,3-0.5,5.9-1.4,8.6c-0.9,2.7-2,5.2-3.5,7.3c-1.4,2.2-3.1,3.9-4.7,5.5c-1.7,1.5-3.4,2.6-4.9,3.5c-1.6,0.9-3,1.4-4.2,1.8
						c-1.2,0.5-2.2,0.6-2.8,0.8c-0.6,0.1-1,0.2-1,0.2s0.3-0.2,0.9-0.5c0.6-0.3,1.5-0.7,2.5-1.4c1.1-0.6,2.3-1.5,3.6-2.5
						c1.3-1.1,2.6-2.4,4-3.9c1.3-1.6,2.6-3.3,3.6-5.4c1.1-2,1.9-4.3,2.5-6.6c0.6-2.4,0.8-4.9,0.8-7.5c-0.1-2.6-0.5-5-1.2-7.6
						c-0.8-2.5-1.8-4.9-3.2-7c-1.5-2.1-3-4.1-4.9-5.7c-1.9-1.6-3.8-3.1-5.8-4.1c-2-1.1-4.1-1.8-6-2.4c-2-0.5-3.8-0.8-5.5-1
						c-1.7-0.1-3.1-0.2-4.3-0.1c-1.2,0-2.2,0.2-2.9,0.3C463.4,162.8,463,162.8,463,162.8z"/>
				</g>
			</g>
			<g>
				<g>
					<path class="st1" d="M327.9,248.3c0,0-0.3,0.3-0.7,0.9c-0.5,0.5-1.1,1.5-2.2,2.4c-1,1-2.4,2.1-4,3.3c-1.7,1.1-3.7,2.2-6,3.2
						c-2.4,0.8-5,1.7-7.9,1.9c-2.9,0.4-6,0.3-9.1-0.2c-3.2-0.5-6.3-1.5-9.4-3c-3-1.5-5.8-3.6-8.4-5.8c-2.3-2.3-4.6-5.2-6.2-8.1
						c-1.6-3-2.8-6.1-3.4-9.2c-0.6-3.1-0.9-6.2-0.6-9.1c0.1-2.9,0.8-5.6,1.6-8c0.8-2.4,1.9-4.4,2.9-6.1c1.1-1.7,2.1-3.1,3.1-4.2
						c0.9-1.1,1.8-1.8,2.3-2.3c0.6-0.5,0.8-0.8,0.8-0.8s-0.2,0.3-0.7,1c-0.4,0.6-1.1,1.5-1.8,2.7c-0.7,1.2-1.5,2.7-2.2,4.4
						c-0.7,1.8-1.3,3.8-1.8,6.1c-0.4,2.3-0.7,4.7-0.7,7.4c0,2.6,0.5,5.3,1.1,8.1c0.7,2.7,2,5.4,3.3,7.9c1.5,2.6,3.3,4.7,5.5,6.9
						c2.2,2,4.6,3.8,7.2,5.2c2.6,1.3,5.3,2.4,8.1,3c2.8,0.5,5.5,0.9,8.1,0.8c2.6,0,5.1-0.5,7.3-1c2.2-0.6,4.2-1.3,6-2.1
						c1.7-0.8,3.2-1.6,4.3-2.4c1.2-0.7,2-1.5,2.6-1.9C327.6,248.5,327.9,248.3,327.9,248.3z"/>
				</g>
			</g>
			<g>
				<g>
					<path class="st1" d="M406.1,270.3c0,0,0,0.3,0.1,1c0.1,0.6,0.1,1.5-0.1,2.8c-0.2,2.4-1.3,5.8-3.6,9.4
						c-2.4,3.5-5.9,7.1-10.7,9.7c-2.4,1.3-5,2.3-7.9,2.8c-0.7,0.1-1.4,0.2-2.2,0.3l-2,0.1c-1.5,0-2.9,0-4.3-0.1
						c-5.7-0.4-11.4-2.7-15.5-6.2c-4.1-3.5-6.7-7.9-8-11.8c-1.4-3.9-1.8-7.4-1.8-9.7c0-2.4,0.2-3.7,0.2-3.7s0.1,1.4,0.6,3.6
						c0.5,2.2,1.4,5.4,3.2,8.8c1.8,3.4,4.5,7,8.2,9.7c3.7,2.8,8.4,4.3,13.4,4.7c1.2,0.1,2.5,0.1,3.7,0l2-0.1l1.7-0.2
						c2.3-0.4,4.6-1.2,6.7-2.2c2.1-0.9,4-2.2,5.7-3.5c1.8-1.2,3.2-2.7,4.5-4.1c1.3-1.4,2.3-2.8,3.1-4.1c0.8-1.3,1.4-2.6,1.8-3.6
						C405.9,271.7,406,270.3,406.1,270.3z"/>
				</g>
			</g>
			<g>
				<g>
					<path class="st1" d="M291.4,217.4c0,0-0.2-0.1-0.7-0.2c-0.5-0.2-1.2-0.3-2-0.8c-1.7-0.8-4-2.2-6.2-4.7c-1-1.3-2.1-2.7-2.9-4.4
						c-0.9-1.7-1.5-3.6-1.8-5.7c-0.4-2.1-0.4-4.3-0.1-6.5c0.3-2.3,1-4.3,2-6.6c0.9-1.7,2.3-3.9,3.8-5.4c1.5-1.6,3.3-3,5.1-4
						c1.8-1,3.7-1.8,5.6-2.1c1.8-0.5,3.7-0.5,5.3-0.5c3.3,0.1,5.9,1,7.5,1.9c0.8,0.3,1.4,0.8,1.8,1.1c0.4,0.3,0.6,0.4,0.6,0.4
						s-1-0.3-2.8-0.6c-0.9-0.2-1.9-0.2-3.1-0.3c-1.2,0-2.5,0.1-4,0.2c-2.8,0.5-6,1.6-8.8,3.5c-1.5,0.9-2.7,2.2-3.9,3.5
						c-1.2,1.4-2,2.7-3,4.6c-0.7,1.4-1.3,3.3-1.6,5c-0.2,1.8-0.5,3.5-0.3,5.2c0.3,3.4,1.4,6.6,2.8,9.1c0.8,1.2,1.5,2.3,2.3,3.2
						c0.8,0.9,1.5,1.7,2.2,2.2C290.6,216.8,291.4,217.4,291.4,217.4z"/>
				</g>
			</g>
			<g>
				<g>
					<path class="st1" d="M475.5,213.1c0,0,0.3,0.2,0.9,0.5c0.6,0.3,1.5,0.7,2.5,1.4c1.1,0.7,2.3,1.6,3.6,2.9
						c1.3,1.2,2.6,2.8,3.8,4.6c1.2,1.9,2.3,4,3.1,6.4c0.9,2.4,1.3,5.1,1.5,7.9c0.1,2.8-0.2,5.8-0.9,8.6c-0.8,2.9-2,5.7-3.6,8.3
						c-1.6,2.4-3.7,4.9-5.9,6.8c-2.3,1.9-4.8,3.5-7.4,4.6c-2.6,1.1-5.2,1.8-7.8,2.1c-2.5,0.4-5,0.2-7.1,0c-2.2-0.3-4.1-0.8-5.8-1.4
						c-1.7-0.6-3-1.3-4.1-2c-1.1-0.6-1.8-1.3-2.4-1.6c-0.5-0.4-0.8-0.6-0.8-0.6s0.3,0.1,0.9,0.4c0.6,0.2,1.5,0.7,2.7,1
						c1.1,0.4,2.6,0.7,4.2,1.1c1.6,0.3,3.5,0.4,5.5,0.5c2-0.1,4.2-0.2,6.4-0.8c2.2-0.4,4.4-1.4,6.6-2.4c2.2-1.1,4.2-2.6,6.1-4.2
						c1.9-1.7,3.4-3.6,4.9-5.9c1.3-2.2,2.5-4.5,3.2-7c0.6-2.4,1.2-4.9,1.2-7.4c0-2.4-0.1-4.8-0.7-7c-0.5-2.2-1.3-4.2-2.1-6.1
						c-0.9-1.8-1.8-3.4-2.8-4.7c-1-1.3-1.9-2.5-2.8-3.3c-0.8-0.9-1.6-1.5-2.1-2C475.8,213.3,475.5,213.1,475.5,213.1z"/>
				</g>
			</g>
			<g>
				<g>
					<path class="st1" d="M408.6,141.3c0,0,0.2-0.3,0.5-0.9c0.4-0.6,0.7-1.5,1.5-2.6c0.7-1.1,1.7-2.3,3-3.7c1.3-1.3,2.8-2.7,4.8-4
						c1.9-1.2,4.1-2.4,6.7-3.2c2.5-0.9,5.3-1.4,8.2-1.5c2.9-0.1,6,0.2,8.9,1c3,0.8,5.9,2.1,8.6,3.7c2.5,1.7,5,3.8,7,6.1
						c2,2.4,3.6,5,4.7,7.7c1.1,2.7,1.9,5.4,2.2,8.1c0.4,2.6,0.3,5.1,0,7.4c-0.3,2.3-0.9,4.3-1.5,6c-0.7,1.7-1.3,3.1-2,4.3
						c-0.6,1.2-1.3,1.9-1.7,2.5c-0.4,0.6-0.6,0.8-0.6,0.8s0.1-0.3,0.4-1c0.2-0.6,0.7-1.5,1-2.7c0.4-1.2,0.8-2.7,1.2-4.3
						c0.3-1.7,0.4-3.6,0.5-5.7c-0.1-2.1-0.2-4.3-0.8-6.6c-0.5-2.3-1.4-4.6-2.5-6.9c-1.1-2.3-2.7-4.4-4.4-6.4c-1.8-2-3.7-3.6-6.1-5.1
						c-2.3-1.4-4.7-2.6-7.3-3.3c-2.5-0.7-5.1-1.2-7.7-1.2c-2.5,0-5,0.2-7.3,0.7c-2.3,0.5-4.4,1.3-6.3,2.2c-1.9,0.9-3.5,1.9-4.9,2.9
						c-1.4,1-2.5,2-3.4,2.9c-0.9,0.8-1.6,1.7-2,2.1C408.9,141,408.6,141.3,408.6,141.3z"/>
				</g>
			</g>
		</g>
	</g>
</g>
<g>
	<path class="st0" d="M263.3,467c0.4,0.1,0.8,0.1,1.2,0.1c1,0.1,2.1,0,3.2-0.2c0.7-0.1,1.4-0.3,2-0.5c0.3-0.1,0.6-0.2,0.9-0.3
		c0.8-0.3,1.6-0.7,2.4-1c0.7-0.4,1.3-0.8,1.8-1.1c0.4-0.2,0.7-0.5,0.9-0.7l0.5-0.4l0.2,0.1c1.5,1.2,3.4,2.6,5.5,3.7
		c2.7,1.4,5.2,2.4,7.7,2.9c1,0.3,2.1,0.5,3.3,0.6c1.6,0.2,3.3,0.3,5.2,0.3l2.5-0.2l1.7-0.2c1.1-0.1,2.3-0.4,3.4-0.7l0.8-0.2
		c2.3-0.7,4.7-1.7,7.5-3.3c2.4-1.4,4.7-3.3,6.8-5.5l0.1-0.1l0.1,0.1c0.7,0.3,1.7,0.6,3.1,0.8c0,0,0.3,0,0.3,0
		c0.9,0.1,1.7,0.1,2.6,0.1l0.4,0c0.8-0.1,1.7-0.2,2.5-0.4c1-0.2,2-0.6,3-1.1l1.4-0.8c0.3-0.2,0.6-0.4,0.9-0.7l0.4-0.3
		c1-0.8,1.7-1.6,2.3-2.3c0.7-0.8,1.2-1.7,1.7-2.7c0.4-0.6,0.6-1.3,0.8-1.9c0.1-0.3,0.2-0.6,0.3-0.9c0.2-0.9,0.4-1.7,0.6-2.5
		c0.1-0.8,0.1-1.5,0.2-2.2c0-0.4,0-0.8,0-1.2l-0.1-1l0.2-0.2c1.2-0.5,2.2-0.9,3.2-1.4c2.3-1.2,4.9-3.2,7.1-5.2
		c2.2-2.4,3.9-4.7,5.3-7.3c1.3-2.7,2.3-5.4,2.7-8.2c0.2-0.9,0.3-1.8,0.3-2.6l0-0.2l0.2,0c0.8,0,2-0.2,3.4-0.6c0.8-0.2,1.6-0.6,2.4-1
		l0.4-0.2c0.7-0.4,1.4-0.8,2.1-1.4c0.8-0.6,1.6-1.4,2.3-2.2l1-1.3c0.2-0.3,0.4-0.6,0.6-1l0.3-0.5c0.6-1.1,0.9-2.1,1.2-3.1
		c0.3-1,0.4-2,0.5-3.1c0.1-0.7,0-1.4,0-2c0-0.3,0-0.6-0.1-0.9c-0.1-0.9-0.3-1.8-0.5-2.5c-0.2-0.8-0.5-1.4-0.7-2
		c-0.1-0.4-0.3-0.8-0.5-1.1l-0.2-0.4c-0.2-0.4-0.4-0.7-0.5-0.9l-0.1-0.2l0.2-0.1c0.4-0.3,0.7-0.6,1.1-1c1.8-1.7,3.5-3.8,5-6.3
		c1.4-2.5,2.5-5.2,3.2-8.1l0.1-0.4c0.2-1.3,0.5-2.7,0.6-4.1c0.1-1.2,0.1-2.1,0.1-3.2c0-0.4,0-0.8,0-1.3c-0.4-3.2-1.1-6.2-2.1-8.7
		c-1.1-2.8-2.6-5.3-4.4-7.5c-0.2-0.3-0.4-0.5-0.7-0.8l-0.3-0.3l0.2-0.7c0.2-0.9,0.6-2.7,0.7-5.2c0.1-2.4-0.2-4.9-0.9-7.4
		c-0.1-0.4-0.3-0.9-0.5-1.3l-0.3-0.7c-0.2-0.7-0.5-1.4-0.9-2l-1.1-2c-0.3-0.4-0.6-0.8-0.9-1.2l-0.4-0.6c-0.6-0.9-1.4-1.5-2.2-2.2
		c-0.4-0.3-0.7-0.6-1-0.9c-0.8-0.6-1.6-1-2.5-1.5c-0.4-0.2-0.9-0.5-1.3-0.7c-1-0.4-2-0.7-2.9-1l-0.8-0.3c-0.7-0.2-1.5-0.3-2.2-0.4
		l-2.8-0.4c-0.3,0-0.6,0-0.9,0l-1.1,0l-0.3-0.2c-0.6-2.6-1.5-5.1-2.7-7.5c-1.2-2.4-3.3-5.1-5.4-7.4c-2.5-2.3-4.9-4.1-7.6-5.5
		c-0.8-0.4-1.7-0.8-2.5-1.1l-0.1-0.1l0-0.1c0-0.3-0.1-0.6-0.2-1.1c-0.2-0.9-0.6-2.7-1.5-5c-0.9-2.2-2.3-4.4-3.9-6.4
		c-0.3-0.3-0.6-0.7-0.9-1l-0.5-0.5c-0.5-0.5-1-1-1.6-1.4l-1.9-1.3c-0.4-0.2-0.9-0.5-1.3-0.7l-0.7-0.3c-0.9-0.5-2-0.8-3-1.1
		c-0.4-0.1-0.9-0.2-1.3-0.4c-0.3-0.1-0.7-0.1-1.1-0.2c-0.6-0.1-1.2-0.1-1.8-0.1c-0.5,0-1-0.1-1.4-0.1c-1,0.1-2.1,0.2-3.1,0.3
		l-0.9,0.1c-0.9,0.1-1.7,0.4-2.4,0.6c-0.3,0.1-2.2,0.7-2.2,0.7c-0.5,0.2-0.8,0.3-1,0.5l-1,0.5l-0.3,0c-0.5-0.3-0.9-0.6-1.3-0.8
		c-2.6-1.5-5.5-2.6-8.4-3.4c-1.8-0.5-3.5-0.8-5.2-1c-1.5-0.2-3-0.3-4.5-0.2c-0.6,0-1.1,0-1.7,0.1l-1.5,0.1c-0.3,0-0.4,0-0.5,0.1
		l-2.2,0.3c-0.5,0.1-1,0.1-1.5,0.3l-2.5,0.6c-1.2,0.3-2.3,0.7-3.4,1.2c-0.5,0.2-0.9,0.4-1.4,0.6c-0.5,0.2-1,0.5-1.4,0.7
		c-1,0.5-2,1-3,1.6l-2.1,1.3l-1.9,1.5c-0.3,0.2-0.6,0.5-0.9,0.8l-0.4,0.4l-0.2-0.1c-0.8-0.7-2.1-1.8-4-2.9c-2-1.2-4.4-2.2-6.9-2.8
		c-0.4-0.1-0.9-0.2-1.4-0.2l-0.7-0.1c-0.3,0-0.6-0.1-0.8-0.1c-0.4-0.1-0.9-0.1-1.3-0.1l-2.3,0c-0.5,0.1-1,0.1-1.5,0.2l-0.7,0.1
		c-1.1,0.1-2,0.5-3,0.9c-0.4,0.2-0.9,0.3-1.3,0.5c-0.9,0.4-1.7,0.9-2.5,1.4c-0.4,0.3-0.8,0.5-1.2,0.8c-0.8,0.7-1.6,1.4-2.3,2.1
		l-0.6,0.6c-0.6,0.6-1.1,1.3-1.6,2c-0.2,0.3-1.5,2.1-1.5,2.1c-0.2,0.3-0.3,0.5-0.4,0.8l-0.2,0.4c-0.3,0.6-0.6,1.1-0.8,1.6l-0.1,0.1
		l-0.2,0l-0.5,0c-0.2,0-0.4,0-0.6,0c-2.3,0.1-4.6,0.5-7.1,1.1c-2.7,0.8-4.8,1.6-6.5,2.5c-1.9,1-3.8,2.2-5.7,3.8
		c-1.8,1.5-3.5,3.4-5,5.4l-0.1,0.2l-0.2-0.1c-0.5-0.3-1.7-1.1-3.5-1.6c-0.8-0.3-1.7-0.4-2.6-0.5l-0.4,0c-0.8-0.1-1.7-0.1-2.5,0
		c-1,0-2.1,0.3-3.2,0.6l-1.6,0.6c-0.3,0.2-0.7,0.3-1,0.5l-0.5,0.2c-1.1,0.6-2,1.3-2.7,1.9c-0.8,0.7-1.5,1.4-2.2,2.3
		c-0.5,0.5-0.8,1.1-1.1,1.7c-0.2,0.3-0.3,0.5-0.5,0.8c-0.4,0.8-0.7,1.6-1,2.4c-0.2,0.8-0.4,1.5-0.5,2.1c-0.1,0.4-0.1,0.8-0.2,1.2
		l-0.1,0.9l-0.1,0.2c-1.5,0.6-2.7,1.3-3.8,2c-1.9,1.3-3.8,3.2-4.8,4.4c-1.5,2-2.5,3.8-3.3,5.9c-0.7,2-1.2,4.1-1.3,6.3
		c-0.1,1,0,2.1,0.1,3.3l0,0.2l-0.1,0.1c-0.4,0.3-0.9,0.6-1.4,1l-1.9,1.5l-2,1.9c-0.5,0.5-0.9,1-1.3,1.5l-0.7,0.9
		c-0.5,0.6-0.9,1.2-1.3,1.9c-0.2,0.4-0.5,0.7-0.7,1.1c-1.1,1.9-2.4,4.4-3.2,7.4c-0.9,2.6-1.3,5.7-1.4,9c0,3.2,0.4,6.5,1.3,9.7
		c0.8,2.8,2.4,6.2,4.2,9.1c1.8,2.6,3.7,4.7,5.9,6.7l0.2,0.1l-0.1,0.2c-0.6,0.7-1.1,1.5-1.5,2.3c-0.4,0.7-0.7,1.6-1,2.4l-0.1,0.4
		c-0.2,0.8-0.4,1.6-0.5,2.5c-0.2,1-0.1,2.1,0,3.2l0.2,1.6c0.1,0.4,0.2,0.7,0.3,1.1l0.1,0.5c0.4,1.2,0.8,2.2,1.3,3
		c0.5,0.9,1.1,1.8,1.9,2.6c0.4,0.6,1,1,1.5,1.4c0.2,0.2,0.5,0.4,0.7,0.6c0.7,0.5,1.5,1,2.1,1.4c0.7,0.4,1.4,0.7,1.9,0.9
		c0.4,0.2,0.8,0.3,1.1,0.4l0.4,0.1c0.7,2.6,1.3,4.6,2.1,6.3c1,2.3,2.3,4.7,4.1,7.1c1.6,1.9,3.6,4.2,6,6c1.1,0.9,2.5,1.7,3.6,2.4
		c0.8,0.5,1.6,0.9,2.4,1.2c0.4,0.2,0.8,0.4,1.3,0.6c2.4,1,4.8,1.7,8,2.2c0.3,0,0.6,0.1,0.9,0.1c3.5,0.4,7.3,0.2,10.9-0.6l0.2,0
		l0.1,0.2c0.1,0.2,0.2,0.5,0.4,0.8c0.4,0.8,1.2,2.4,2.8,4.4c1.5,1.9,3.3,3.7,5.4,5.1c0.4,0.3,0.8,0.5,1.2,0.7l0.7,0.4
		c0.6,0.4,1.2,0.7,1.9,0.9l2.1,0.8c0.5,0.1,1,0.2,1.5,0.3l0.7,0.2c0.3,0.1,0.6,0.1,0.9,0.2c0.7,0.1,1.5,0.1,2.2,0.1
		c0.5,0,0.9,0,1.4,0c1,0,1.9-0.2,2.9-0.4c0.5-0.1,0.9-0.2,1.4-0.3c1-0.3,2-0.7,2.9-1.1l0.8-0.3c0.8-0.4,1.5-0.8,2.2-1.2
		c0.3-0.2,2.2-1.4,2.2-1.4c0.1-0.1,0.3-0.3,0.3-0.3l0.2-0.1l1.4,0.2c0.8,0.1,1.5,0.2,2.2,0.2c2.3,0.1,4.7-0.2,7-0.7l0.2-0.1l0,0.3
		c0,0.2,0.1,0.6,0.2,1.3c0.1,0.5,0.5,2,1.4,3.5c0.4,0.7,0.9,1.4,1.5,2.1l0.3,0.3c0.6,0.6,1.1,1.2,1.8,1.8c0.8,0.7,1.7,1.2,2.7,1.7
		l1.5,0.7c0.4,0.1,0.7,0.2,1.1,0.3l0.5,0.1C262,466.8,262.7,467,263.3,467z"/>
	<g>
		<g>
			<g>
				<g>
					<path class="st1" d="M259.5,290c0,0-2.6-1.4-6.4-2.7c-1-0.3-2-0.7-3.2-0.9c-1.1-0.3-2.3-0.4-3.5-0.7c-1.2-0.1-2.5-0.3-3.8-0.2
						l-1.9,0.1l-1.9,0.4c-1.3,0.1-2.5,0.7-3.7,1c-1.2,0.5-2.3,1.1-3.4,1.6c-1,0.7-2,1.4-2.9,2.1c-0.9,0.7-1.7,1.5-2.5,2.2
						c-0.8,0.7-1.5,1.3-2,2c-0.6,0.6-1.1,1.2-1.5,1.6c-0.9,0.9-1.4,1.4-1.4,1.4s0.3-0.7,0.8-1.8c0.6-1.1,1.2-2.9,2.6-4.5
						c0.7-0.9,1.3-1.9,2.2-2.8c0.9-0.9,1.9-1.8,3-2.7c1.2-0.7,2.4-1.6,3.8-2.2c1.4-0.5,2.8-1.2,4.3-1.4c0.8-0.1,1.5-0.3,2.3-0.3
						l2.3,0c1.5-0.1,2.9,0.3,4.3,0.5c2.7,0.7,5.1,1.7,7,2.8C257.7,287.7,259.5,290,259.5,290z"/>
				</g>
			</g>
			<g>
				<g>
					<path class="st1" d="M204.7,445c0,0,1.9,2.2,5,4.9c0.8,0.6,1.7,1.4,2.6,2c0.9,0.7,2,1.3,3,1.9c1.1,0.5,2.2,1.1,3.4,1.5l1.8,0.6
						l1.9,0.4c1.2,0.4,2.5,0.2,3.8,0.4c1.3,0,2.5-0.2,3.7-0.3c1.2-0.3,2.4-0.6,3.5-0.8c1.1-0.3,2.1-0.8,3.1-1.1
						c1-0.3,1.9-0.7,2.6-1.1c0.8-0.4,1.4-0.7,2-1c1.1-0.5,1.8-0.8,1.8-0.8s-0.5,0.5-1.4,1.4c-1,0.8-2.2,2.2-4.1,3.3
						c-0.9,0.6-1.9,1.3-3.1,1.8c-1.2,0.5-2.4,1-3.8,1.4c-1.4,0.2-2.8,0.6-4.3,0.7c-1.5-0.1-3,0.1-4.5-0.3c-0.7-0.2-1.5-0.3-2.2-0.5
						l-2.1-0.8c-1.4-0.5-2.6-1.4-3.8-2.1c-2.3-1.6-4.1-3.5-5.5-5.2C205.6,447.8,204.7,445,204.7,445z"/>
				</g>
			</g>
			<g>
				<g>
					<path class="st1" d="M198,309.3c0,0-0.5,0-1.4-0.2c-0.9-0.1-2.1-0.2-3.6-0.2c-1.5,0-3.1,0.1-4.8,0.5c-0.9,0.1-1.7,0.5-2.6,0.8
						c-0.8,0.3-1.7,0.7-2.5,1.2c-0.8,0.4-1.6,0.9-2.3,1.5c-0.7,0.6-1.4,1.1-2,1.8c-0.6,0.6-1.2,1.3-1.7,1.9c-0.5,0.7-1,1.3-1.4,1.9
						c-0.8,1.2-1.5,2.3-1.9,3.1c-0.5,0.8-0.8,1.2-0.8,1.2s0-0.5,0.1-1.4c0-0.9,0.3-2.2,0.8-3.8c0.3-0.8,0.6-1.6,1-2.4
						c0.5-0.8,0.9-1.7,1.6-2.5c0.6-0.8,1.3-1.7,2.2-2.4c0.8-0.7,1.8-1.4,2.7-1.9c1-0.5,2-1,3.1-1.3c1.1-0.3,2.1-0.5,3.2-0.6
						c2.1-0.2,4,0.1,5.6,0.6c1.6,0.4,2.8,1.1,3.6,1.6C197.6,308.9,198,309.3,198,309.3z"/>
				</g>
			</g>
			<g>
				<g>
					<path class="st1" d="M159,393.8c0,0-0.2,0.5-0.5,1.4c-0.3,0.9-0.6,2-0.9,3.5c-0.3,1.4-0.5,3.1-0.4,4.8c0,0.9,0.2,1.8,0.2,2.6
						c0.1,0.9,0.4,1.8,0.7,2.6c0.3,0.9,0.6,1.7,1,2.5c0.4,0.8,0.8,1.6,1.3,2.3c0.5,0.7,1,1.4,1.5,2.1c0.6,0.6,1.1,1.2,1.6,1.8
						c1.1,1,2,1.9,2.7,2.5c0.7,0.6,1.1,1,1.1,1s-0.5-0.1-1.4-0.4c-0.9-0.2-2.1-0.7-3.6-1.5c-0.7-0.4-1.4-0.9-2.2-1.5
						c-0.7-0.6-1.5-1.2-2.1-2.1c-0.7-0.8-1.4-1.6-1.9-2.6c-0.6-1-1-2-1.4-3.1c-0.3-1.1-0.6-2.2-0.7-3.3c-0.1-1.1-0.1-2.2,0-3.2
						c0.2-2.1,0.9-3.9,1.6-5.4c0.7-1.4,1.6-2.5,2.3-3.2C158.6,394.2,159,393.8,159,393.8z"/>
				</g>
			</g>
			<g>
				<g>
					<path class="st1" d="M250,454.7c0,0,0.4,0.4,0.9,1.1c0.6,0.7,1.4,1.6,2.4,2.7c1.1,1,2.3,2.1,3.9,2.9c0.7,0.5,1.6,0.8,2.4,1.2
						c0.8,0.4,1.7,0.7,2.6,0.9c0.9,0.2,1.8,0.4,2.7,0.5c0.9,0.1,1.8,0.2,2.7,0.1c0.9,0,1.7-0.1,2.6-0.2c0.8-0.2,1.6-0.3,2.3-0.4
						c1.4-0.4,2.7-0.6,3.5-0.9c0.9-0.2,1.4-0.4,1.4-0.4s-0.4,0.4-1.1,1c-0.7,0.6-1.8,1.4-3.2,2.2c-0.7,0.3-1.5,0.7-2.4,1
						c-0.9,0.2-1.8,0.6-2.9,0.7c-1,0.2-2.1,0.3-3.2,0.2c-1.1,0-2.2-0.2-3.3-0.5c-1.1-0.3-2.1-0.7-3.1-1.2c-1-0.5-1.9-1.1-2.7-1.8
						c-1.7-1.3-2.9-2.8-3.7-4.3c-0.8-1.4-1.3-2.7-1.5-3.6C250,455.2,250,454.7,250,454.7z"/>
				</g>
			</g>
			<g>
				<g>
					<path class="st1" d="M319.2,459.9c0,0,0.5,0,1.4-0.1c0.9,0,2.1-0.2,3.6-0.4c1.4-0.3,3.1-0.7,4.7-1.4c0.8-0.3,1.6-0.8,2.4-1.2
						c0.8-0.5,1.5-1,2.2-1.6c0.7-0.6,1.4-1.2,2-1.9c0.6-0.7,1.2-1.4,1.7-2.1c0.5-0.7,0.9-1.5,1.4-2.2c0.4-0.7,0.7-1.4,1.1-2.1
						c0.5-1.4,1.1-2.5,1.4-3.4c0.3-0.8,0.5-1.3,0.5-1.3s0.1,0.5,0.2,1.4c0.1,0.9,0.1,2.3-0.1,3.9c-0.1,0.8-0.3,1.7-0.6,2.6
						c-0.3,0.9-0.6,1.9-1.1,2.7c-0.5,0.9-1,1.9-1.7,2.7c-0.7,0.9-1.5,1.7-2.3,2.4c-0.9,0.7-1.8,1.3-2.8,1.8c-1,0.5-2,0.9-3,1.1
						c-2,0.6-4,0.6-5.6,0.4c-1.6-0.2-3-0.6-3.8-0.9C319.6,460.1,319.2,459.9,319.2,459.9z"/>
				</g>
			</g>
			<g>
				<g>
					<path class="st1" d="M358.5,418.3c0,0,0.5-0.3,1.3-0.6c0.8-0.4,1.9-1,3.1-1.8c1.2-0.8,2.5-1.8,3.7-3.1c0.6-0.6,1.1-1.4,1.7-2
						c0.5-0.7,1-1.5,1.4-2.3c0.4-0.8,0.8-1.6,1.1-2.5c0.3-0.9,0.6-1.7,0.7-2.6c0.2-0.9,0.2-1.7,0.4-2.5c0-0.8,0.1-1.6,0.1-2.4
						c0-1.5,0-2.8-0.1-3.7c0-0.9,0-1.4,0-1.4s0.3,0.4,0.7,1.3c0.5,0.8,1,2,1.5,3.6c0.2,0.8,0.4,1.6,0.5,2.6c0,0.9,0.2,1.9,0.1,3
						c-0.1,1-0.2,2.1-0.5,3.2c-0.3,1.1-0.7,2.1-1.2,3.1c-0.5,1-1.2,1.9-1.8,2.8c-0.7,0.8-1.5,1.6-2.3,2.3c-1.6,1.3-3.4,2.2-5,2.7
						c-1.5,0.5-3,0.6-3.8,0.7C359.1,418.3,358.5,418.3,358.5,418.3z"/>
				</g>
			</g>
			<g>
				<g>
					<path class="st1" d="M334.1,302.4c0,0-1.3-2.6-3.6-6c-0.6-0.8-1.2-1.7-2-2.6c-0.7-0.9-1.6-1.7-2.4-2.6
						c-0.9-0.8-1.9-1.7-2.9-2.4l-1.6-1.1l-1.7-0.8c-1.1-0.7-2.4-0.9-3.6-1.3c-1.2-0.3-2.5-0.4-3.7-0.7c-1.2,0-2.5-0.1-3.6-0.1
						c-1.2,0-2.2,0.2-3.3,0.3c-1,0.1-2,0.2-2.8,0.4c-0.8,0.2-1.6,0.3-2.2,0.4c-1.2,0.2-1.9,0.3-1.9,0.3s0.6-0.4,1.7-1
						c1.1-0.5,2.7-1.6,4.8-2.1c1-0.3,2.2-0.7,3.4-0.9c1.3-0.1,2.6-0.3,4-0.4c1.4,0.1,2.9,0.1,4.3,0.4c1.4,0.5,3,0.7,4.3,1.4
						c0.7,0.4,1.4,0.7,2,1.1l1.8,1.3c1.2,0.8,2.2,2,3.2,3c1.8,2.2,3.1,4.4,4,6.4C334,299.4,334.1,302.4,334.1,302.4z"/>
				</g>
			</g>
			<g>
				<g>
					<path class="st1" d="M374.3,352.9c0,0-0.1-2.9-0.8-6.9c-0.2-1-0.4-2.1-0.7-3.2c-0.2-1.1-0.7-2.2-1.1-3.4
						c-0.5-1.1-1-2.3-1.7-3.4l-1-1.6l-1.2-1.5c-0.7-1.1-1.8-1.8-2.7-2.7c-1-0.8-2.1-1.4-3.1-2.1c-1.1-0.5-2.2-1.1-3.2-1.6
						c-1.1-0.5-2.1-0.7-3.1-1.1c-1-0.4-1.9-0.7-2.7-0.8c-0.8-0.2-1.6-0.4-2.1-0.5c-1.2-0.3-1.9-0.5-1.9-0.5s0.7-0.1,2-0.2
						c1.2,0,3.1-0.3,5.2,0.1c1.1,0.2,2.3,0.2,3.5,0.6c1.2,0.4,2.5,0.8,3.8,1.3c1.2,0.7,2.6,1.3,3.8,2.2c1.1,1,2.4,1.9,3.3,3.1
						c0.5,0.6,1,1.2,1.4,1.8l1.1,2c0.8,1.3,1.1,2.7,1.6,4c0.7,2.7,1,5.3,0.9,7.5C375.4,350.2,374.3,352.9,374.3,352.9z"/>
				</g>
			</g>
		</g>
		<g>
			<g>
				<g>
					<path class="st1" d="M329,443.4c0,0,0,0.3-0.1,1c-0.1,0.6-0.2,1.6-0.5,2.7c-0.6,2.3-1.7,5.7-4,9.2c-2.3,3.5-5.8,7.2-10.4,9.9
						c-2.3,1.3-4.8,2.5-7.6,3.3c-1.4,0.3-2.7,0.7-4.2,0.9l-1.1,0.2l-0.6,0.1l-0.5,0l-2,0.1c-2.9,0-5.9-0.2-8.6-0.9
						c-2.8-0.6-5.4-1.7-7.7-2.9c-2.4-1.2-4.5-2.8-6.3-4.3c-1.8-1.6-3.3-3.3-4.6-5c-1.3-1.7-2.2-3.4-2.9-4.9
						c-0.7-1.5-1.2-2.9-1.5-4.1c-0.4-1.1-0.5-2.1-0.6-2.7c-0.1-0.6-0.2-1-0.2-1s0.2,0.3,0.4,0.9c0.3,0.6,0.6,1.4,1.3,2.4
						c0.6,1,1.3,2.2,2.2,3.5c0.9,1.3,2.1,2.7,3.4,4.1c1.3,1.4,2.9,2.7,4.7,4c1.8,1.2,3.8,2.4,5.9,3.4c2.1,1,4.5,1.7,6.9,2.2
						c2.4,0.6,4.9,0.7,7.3,0.6l2-0.1l0.5,0c-0.1,0,0.3,0,0.4-0.1l0.9-0.1c1.2-0.1,2.4-0.4,3.6-0.7c2.4-0.6,4.7-1.5,6.8-2.5
						c2.1-1.1,4-2.3,5.7-3.7c1.7-1.4,3.2-2.8,4.5-4.3c2.6-2.9,4.3-5.8,5.3-7.8c0.5-1,0.9-1.9,1.1-2.5
						C328.8,443.7,329,443.4,329,443.4z"/>
				</g>
			</g>
			<g>
				<g>
					<path class="st1" d="M316.1,301.8c0,0-0.9-1.3-2.6-3.6c-0.9-1.1-1.9-2.3-3.3-3.7c-1.4-1.3-3-2.7-4.9-4
						c-3.8-2.7-8.7-5.1-14.2-6.1c-2.8-0.6-5.7-0.8-8.6-0.7c-0.7,0-1.5,0.1-2.2,0.1l-0.6,0c0,0-0.3,0-0.5,0.1l-1.2,0.2
						c-1.6,0.2-3.1,0.6-4.4,1c-2.8,0.8-5.7,1.9-8.2,3.4c-2.6,1.4-4.9,3.3-7,5.1c-2,2-3.9,4-5.3,6.2c-0.8,1.1-1.4,2.2-2,3.3
						c-0.7,1.1-1.1,2.2-1.6,3.2c-0.5,1-0.8,2.1-1.2,3.1c-0.4,1-0.7,2-0.9,2.9c-0.5,1.8-0.7,3.5-0.9,4.9c-0.2,2.8-0.3,4.4-0.3,4.4
						s-0.1-0.4-0.2-1.1c-0.1-0.7-0.4-1.8-0.4-3.3c0-1.4-0.2-3.2,0-5.1c0.1-2,0.5-4.3,1.2-6.6c0.3-1.2,0.7-2.4,1.3-3.7
						c0.5-1.3,1.1-2.5,1.8-3.8c1.4-2.6,3.2-5,5.3-7.3c2.3-2.2,4.7-4.5,7.6-6.1c2.9-1.8,6-3.1,9.3-4.1c1.7-0.5,3.4-0.8,4.9-1l1.2-0.2
						c0.3,0,0.3-0.1,0.7-0.1l0.6,0c0.8,0,1.7-0.1,2.5-0.1c3.3-0.1,6.6,0.5,9.7,1.2c6.2,1.6,11.3,4.7,15,8.1c1.9,1.6,3.3,3.4,4.5,5
						c1.2,1.6,2.1,3.1,2.8,4.4C315.6,300.2,316.1,301.8,316.1,301.8z"/>
				</g>
			</g>
			<g>
				<g>
					<path class="st1" d="M219.3,438.2c0,0-0.2,0.2-0.7,0.7c-0.5,0.4-1.1,1.1-2.1,1.8c-1.9,1.4-4.9,3.4-8.9,4.6c-4,1.3-9,2-14.3,1.2
						c-2.7-0.4-5.3-1-8-2.3c-2.3-1-5.1-2.5-7.3-4.3c-2.3-1.7-4.3-3.9-6.1-6c-1.7-2.3-3.1-4.7-4.1-7.2c-1.1-2.4-1.7-5-2.1-7.4
						c-0.4-2.4-0.5-4.7-0.4-6.8c0.1-2.1,0.4-4,0.9-5.6c0.3-1.7,1-3,1.4-4.1c0.5-1.1,1-1.9,1.2-2.5c0.3-0.6,0.5-0.9,0.5-0.9
						s-0.3,1.3-0.8,3.6c-0.1,1.2-0.4,2.5-0.5,4.1c-0.1,1.6-0.1,3.4,0,5.3c0.2,1.9,0.5,4,1.1,6.1c0.6,2.1,1.4,4.3,2.5,6.4
						c1,2.1,2.5,4.1,3.9,6.1c1.6,1.9,3.3,3.7,5.4,5.1c1.9,1.6,3.9,2.7,6.4,3.9c2.1,0.9,4.5,1.8,6.8,2.3c4.6,1,9.1,0.9,13,0.3
						c3.8-0.6,6.9-1.8,9-2.8c1-0.5,1.9-0.9,2.4-1.2C219,438.4,219.3,438.2,219.3,438.2z"/>
				</g>
			</g>
			<g>
				<g>
					<path class="st1" d="M191.3,323.2c0,0,0-0.3,0.1-0.8c0.1-0.5,0.1-1.3,0.3-2.3c0.4-2,1.1-4.8,2.8-7.9c1.6-3.1,4.1-6.5,7.5-9.3
						c1.7-1.4,3.6-2.7,5.7-3.8c2-1.1,4.4-1.9,6.5-2.6c4.8-1.2,9.5-1.4,13.9-0.6c4.4,0.8,8.2,2.4,11.1,4.4c2.9,1.9,5,3.9,6.3,5.5
						c0.7,0.7,1.1,1.4,1.4,1.8c0.3,0.4,0.5,0.7,0.5,0.7s-0.9-0.7-2.5-1.8c-1.6-1.1-4-2.5-6.9-3.8c-3-1.2-6.5-2.3-10.4-2.6
						c-1.9-0.2-4-0.1-6,0c-2,0.1-4.1,0.5-6,1c-2.2,0.6-4,1.2-5.9,2.1c-1.8,0.9-3.6,1.8-5.2,3c-3.2,2.3-5.8,4.9-7.8,7.5
						c-2,2.5-3.3,5-4.2,6.7C191.7,322.2,191.3,323.2,191.3,323.2z"/>
				</g>
			</g>
			<g>
				<g>
					<path class="st1" d="M348.9,342.7c0,0,0.4-0.1,1-0.2c0.7-0.1,1.6-0.3,2.9-0.3c1.3-0.1,2.8-0.1,4.6,0.2c1.8,0.2,3.7,0.7,5.8,1.4
						c2.1,0.8,4.3,1.8,6.4,3.3c2.1,1.4,4.2,3.3,6,5.5c1.8,2.2,3.3,4.8,4.5,7.5c1.1,2.8,1.8,5.8,2.1,8.8c0.2,2.9,0,6.1-0.7,9
						c-0.7,2.9-1.8,5.7-3.2,8.1c-1.4,2.4-3.1,4.6-5,6.4c-1.8,1.8-3.9,3.2-5.8,4.3c-2,1.1-3.8,1.8-5.5,2.3c-1.7,0.5-3.2,0.8-4.5,0.9
						c-1.2,0.2-2.2,0.1-2.9,0.1c-0.7,0-1,0-1,0s0.3-0.1,1-0.3c0.6-0.2,1.6-0.4,2.7-0.8c1.2-0.4,2.5-0.9,4-1.7
						c1.5-0.8,3.1-1.7,4.7-2.9c1.6-1.3,3.2-2.7,4.7-4.5c1.5-1.7,2.8-3.8,3.9-5.9c1.1-2.2,1.8-4.6,2.4-7.1c0.5-2.5,0.6-5,0.4-7.7
						c-0.2-2.6-0.7-5.1-1.6-7.5c-1-2.4-2-4.7-3.5-6.6c-1.5-1.9-3-3.8-4.8-5.2c-1.7-1.5-3.6-2.7-5.3-3.7c-1.8-0.9-3.5-1.6-5.1-2.1
						c-1.6-0.5-3-0.8-4.2-1c-1.2-0.3-2.2-0.3-2.8-0.4C349.3,342.7,348.9,342.7,348.9,342.7z"/>
				</g>
			</g>
			<g>
				<g>
					<path class="st1" d="M198.5,396.9c0,0-0.3,0.2-0.9,0.7c-0.6,0.4-1.4,1.2-2.7,1.9c-1.2,0.8-2.8,1.5-4.7,2.3
						c-1.9,0.7-4.1,1.4-6.6,1.8c-2.5,0.3-5.2,0.5-8.1,0.2c-2.9-0.2-5.9-1-8.9-2.2c-3-1.2-5.9-2.9-8.5-5c-2.7-2.2-4.8-4.6-7-7.6
						c-1.6-2.6-3.3-6-4.2-9.2c-0.9-3.2-1.4-6.6-1.3-9.8c0.1-3.2,0.5-6.3,1.4-9c0.8-2.8,2-5.3,3.3-7.4c1.3-2.1,2.8-3.9,4.2-5.4
						c1.4-1.4,2.7-2.6,3.9-3.4c1.1-0.9,2.1-1.4,2.8-1.8c0.7-0.4,1-0.6,1-0.6s-0.3,0.3-0.8,0.8c-0.5,0.5-1.4,1.2-2.3,2.3
						c-1,1-2,2.3-3.1,3.8c-1.1,1.6-2.1,3.4-3.1,5.5c-0.9,2.1-1.7,4.5-2.2,7c-0.6,2.5-0.7,5.3-0.6,8.1c0.1,2.8,0.7,5.7,1.5,8.5
						c0.9,2.9,2.1,5.2,3.9,8.1c1.6,2.2,3.6,4.7,5.8,6.5c2.3,1.8,4.7,3.5,7.2,4.7c2.6,1.1,5.2,2.1,7.7,2.5c2.6,0.5,5,0.6,7.4,0.6
						c2.3-0.1,4.4-0.4,6.3-0.8c1.9-0.4,3.5-0.9,4.7-1.4c1.3-0.4,2.3-1,3-1.3C198.2,397,198.5,396.9,198.5,396.9z"/>
				</g>
			</g>
			<g>
				<g>
					<path class="st1" d="M270,435.3c0,0-0.1,0.3-0.1,1c-0.1,0.6-0.2,1.5-0.7,2.7c-0.8,2.3-2.5,5.4-5.5,8.4
						c-3.1,2.9-7.3,5.6-12.5,7.1c-2.6,0.7-5.4,1.1-8.3,1c-0.7-0.1-1.4-0.1-2.2-0.2l-2-0.3c-1.4-0.3-2.8-0.6-4.2-1
						c-5.5-1.6-10.5-5.1-13.7-9.4c-3.3-4.3-4.8-9.2-5.3-13.3c-0.5-4.1-0.1-7.6,0.4-9.9c0.5-2.3,1-3.6,1-3.6s-0.2,1.3-0.2,3.6
						c0,2.3,0.2,5.6,1.2,9.3c1,3.7,2.8,7.8,5.9,11.3c3,3.5,7.3,6.1,12,7.5c1.2,0.3,2.4,0.6,3.6,0.8l2,0.3l1.7,0.2
						c2.3,0.1,4.7-0.2,7-0.7c2.3-0.4,4.4-1.3,6.4-2.1c2-0.8,3.7-2,5.3-3c1.5-1.1,2.9-2.2,3.9-3.4c1.1-1.1,1.9-2.2,2.6-3.1
						C269.6,436.6,270,435.3,270,435.3z"/>
				</g>
			</g>
			<g>
				<g>
					<path class="st1" d="M169.6,358.8c0,0-0.2-0.1-0.6-0.4c-0.4-0.3-1.1-0.5-1.8-1.2c-1.5-1.1-3.4-3-5-5.9c-0.7-1.4-1.5-3.1-1.9-5
						c-0.5-1.8-0.7-3.9-0.6-6c0.2-4.2,1.8-8.6,4.6-12.3c1.3-1.6,3.1-3.3,4.9-4.6c1.8-1.3,3.9-2.2,5.9-2.8c2-0.6,4-0.9,5.9-0.9
						c1.9-0.1,3.7,0.3,5.3,0.6c3.2,0.9,5.5,2.3,6.9,3.5c0.8,0.5,1.2,1.1,1.6,1.4c0.3,0.3,0.5,0.5,0.5,0.5s-0.9-0.5-2.6-1.1
						c-0.8-0.3-1.8-0.7-3-1c-1.2-0.3-2.5-0.5-3.9-0.6c-2.9-0.2-6.2,0.2-9.4,1.5c-1.6,0.6-3.1,1.6-4.6,2.6c-1.5,1.1-2.6,2.2-3.8,3.8
						c-1.1,1.4-2.1,3-2.7,4.6c-0.6,1.7-1.2,3.3-1.4,5.1c-0.5,3.4-0.1,6.7,0.8,9.5c0.5,1.4,1,2.6,1.5,3.6c0.6,1,1.1,2,1.6,2.6
						C168.8,358,169.6,358.8,169.6,358.8z"/>
				</g>
			</g>
			<g>
				<g>
					<path class="st1" d="M350.2,394.4c0,0,0.3,0.2,0.8,0.7c0.5,0.5,1.3,1,2.1,1.9c0.9,0.9,1.9,2.1,2.9,3.6c1,1.5,1.9,3.3,2.7,5.3
						c0.7,2.1,1.4,4.4,1.6,7c0.3,2.5,0.2,5.3-0.3,8.1c-0.5,2.8-1.4,5.6-2.8,8.2c-1.4,2.6-3.2,5.1-5.3,7.3c-2.1,2-4.6,4-7.2,5.4
						c-2.6,1.4-5.4,2.3-8.2,2.9c-2.8,0.5-5.5,0.7-8.1,0.4c-2.6-0.2-4.9-0.8-7-1.5c-2.1-0.8-3.9-1.7-5.3-2.7c-1.5-1-2.7-1.9-3.6-2.8
						c-1-0.8-1.5-1.6-2-2.1c-0.4-0.5-0.7-0.8-0.7-0.8s0.3,0.2,0.8,0.6c0.6,0.4,1.3,1,2.4,1.5c1,0.6,2.3,1.3,3.9,2
						c1.5,0.6,3.3,1.2,5.3,1.7c2,0.4,4.1,0.7,6.4,0.6c2.3,0,4.6-0.4,7-0.9c2.4-0.6,4.7-1.6,6.9-2.8c2.2-1.3,4.1-2.8,6.1-4.7
						c1.8-1.9,3.4-3.9,4.6-6.1c1.1-2.3,2.2-4.6,2.7-6.9c0.5-2.4,0.9-4.7,0.8-7c0-2.3-0.3-4.4-0.7-6.4c-0.5-1.9-1.1-3.7-1.7-5.2
						c-0.7-1.5-1.3-2.8-2-3.8c-0.6-1.1-1.2-1.8-1.6-2.4C350.4,394.7,350.2,394.4,350.2,394.4z"/>
				</g>
			</g>
			<g>
				<g>
					<path class="st1" d="M300.5,309.9c0,0,0.2-0.3,0.7-0.8c0.5-0.5,1-1.4,2-2.2c0.9-0.9,2.2-1.9,3.7-2.9c1.5-1,3.4-2,5.5-2.8
						c2.2-0.7,4.6-1.5,7.2-1.7c2.6-0.3,5.5-0.2,8.3,0.3c2.9,0.5,5.8,1.5,8.5,2.9c2.7,1.4,5.3,3.3,7.6,5.5c2.1,2.2,4.1,4.8,5.5,7.5
						c1.4,2.7,2.4,5.6,3,8.5c0.5,2.9,0.7,5.7,0.4,8.3c-0.2,2.6-0.9,5.1-1.6,7.2c-0.8,2.2-1.8,4-2.8,5.5c-1,1.5-2,2.8-2.9,3.7
						c-0.8,1-1.7,1.6-2.2,2.1c-0.5,0.5-0.8,0.7-0.8,0.7s0.2-0.3,0.6-0.9c0.4-0.6,1-1.3,1.6-2.5c0.7-1.1,1.4-2.4,2.1-4
						c0.6-1.6,1.2-3.4,1.7-5.5c0.4-2.1,0.7-4.3,0.7-6.6c0.1-2.4-0.4-4.8-0.9-7.3c-0.6-2.5-1.7-4.9-2.9-7.2c-1.3-2.3-2.9-4.3-4.9-6.3
						c-1.9-1.9-4.1-3.5-6.4-4.8c-2.3-1.2-4.7-2.3-7.2-2.8c-2.5-0.5-4.9-0.9-7.3-0.9c-2.4,0-4.6,0.3-6.6,0.7c-2,0.5-3.9,1.1-5.5,1.8
						c-1.6,0.7-2.9,1.4-4,2.1c-1.1,0.6-1.9,1.3-2.5,1.7C300.8,309.6,300.5,309.9,300.5,309.9z"/>
				</g>
			</g>
		</g>
	</g>
</g>
<g>
	<path class="st1" d="M345.2,215.1l35.3-19C380.6,196.1,358.2,202.1,345.2,215.1z"/>
	<path class="st1" d="M333.6,141c0,0-17.6,22.9-21.4,47.9L333.6,141z"/>
	<path class="st1" d="M269.6,171.5l8.4-79.9C271.7,117.8,268.9,144.7,269.6,171.5z"/>
	<path class="st1" d="M232.1,181c-2.8-18.1-7.3-39.1-16.9-56.4L232.1,181z"/>
	<path class="st1" d="M151.5,165.2l37.7,33.2C189.2,198.4,174.2,178.6,151.5,165.2z"/>
	<path class="st1" d="M258,370.8l3.4-40.2C261.4,330.6,255.7,351.6,258,370.8z"/>
	<path class="st1" d="M318.4,359.8c-4.1-18.5-13.4-32.6-13.4-32.6L318.4,359.8z"/>
	<path class="st1" d="M380.1,329.8c-16.6-16.6-39.9-26.8-39.9-26.8L380.1,329.8z"/>
	<path class="st1" d="M419.6,277.7c-23.6-11.8-56-14-56-14L419.6,277.7z"/>
</g>
<g>
	<linearGradient id="SVGID_1_" gradientUnits="userSpaceOnUse" x1="272.441" y1="365.5204" x2="251.8251" y2="162.533">
		<stop  offset="0" style="stop-color:#FFF138"/>
		<stop  offset="1" style="stop-color:#FFAE00"/>
	</linearGradient>
	<path class="st2" d="M246.2,154.4c0,0,0.4,36.3-11.7,39.4c-22,5.6-56.1-60.3-56.1-60.3s31,56.6,16.8,72
		c-10.4,11.2-47.4-9.5-47.4-9.5s37.8,22.7,32.7,34.3c-6.3,14.2-87,5.7-87,5.7s73.5,7.5,73.3,25.4c-0.2,11.5-43.7,26.8-43.7,26.8
		s60.1-13.8,67.9,1.3c5.9,11.4-28.9,42.6-28.9,42.6s48.9-34.8,62.9-25.3c14.6,9.8,0,70.2,0,70.2s20.6-65.6,39.5-64.7
		c13.7,0.6,24.4,49.2,24.4,49.2s-1.3-43.5,10.2-46.6c21.6-5.9,61,65.7,61,65.7s-42-66-28.6-83.5c9.7-12.7,63.7,4.4,63.7,4.4
		s-47.7-19.1-47.7-33.7c0-15.5,77.8-27.8,77.8-27.8s-80.8,12.6-93-7.2c-9.2-15,26.8-65,26.8-65s-32.2,38.2-49.8,33.2
		c-19.8-5.6,2.9-96.1,2.9-96.1s-20.2,77.8-46.4,77.7C253.6,182.3,246.2,154.4,246.2,154.4z"/>
	<path class="st3" d="M241.6,314.1c-1.7-7.5-4.9-13.5-10.1-17.1c-3.6-2.4-8-3.6-13-3.6c-4.6,0-9.9,1.1-15.4,3
		c0.7-4.2,0.4-8.3-1.7-12.2c-4.9-9.5-15.8-12.4-25.8-13.1c2.8-4.3,2.9-7.6,2.9-9.5c0.1-5.6-2.1-10.2-5.8-14
		c10-2.4,15.8-6.4,18.5-12.5c2.2-4.9,1.8-10-0.2-14.9c6.4-1.1,10.5-4.1,12.8-6.6c4-4.3,6-10,6.6-16.6c7,5.6,14.2,9,21.4,9
		c1.9,0,3.8-0.2,5.7-0.7c7.6-1.9,12.4-8,15.5-15.7c3.7,2.8,8,4.6,13,4.6c8.8,0,16.7-4.8,23.7-12.3c0.7,15,4.9,26.9,16.6,30.3
		c2.1,0.6,4.3,0.9,6.6,0.9c0,0,0,0,0,0c3,0,6.1-0.5,9.1-1.5c-3.2,10.5-3.8,20.2,0.5,27.3c4,6.4,11,10.9,21.7,13.7
		c-5.7,4.5-8.2,9.4-8.2,15.2c0,4.6,1.8,9,5,13.3c-8.6,0.9-14.7,3.9-18.6,9c-2.8,3.6-5.3,8.8-5.1,17.7c-6.4-3.9-11.4-4.7-15.3-4.7
		c-2,0-3.9,0.3-5.7,0.8c-5,1.4-9,4.9-12,10.5c-5.2-7.9-11.4-13.1-19-13.5c-0.3,0-0.6,0-0.9,0C256.2,300.5,248.9,304.9,241.6,314.1z"
		/>
	<g>
		<path class="st1" d="M173.9,322c3.8-3.6,7.3-7.4,10.6-11.4c1.6-2,3.2-4.2,4.6-6.4c1.4-2.2,2.7-4.6,3.6-7.3
			c0.4-1.4,0.8-2.8,0.7-4.3c0.1-0.7-0.1-1.7-0.3-2.6l-0.3-0.9l0-0.1l0-0.1c-0.2-0.4-0.1-0.1-0.1-0.2l0,0l-0.2-0.3l-0.3-0.5
			c-1.8-2.7-4.6-4.1-7.2-5c-5.3-1.8-10.6-2-15.8-2c-5.2,0-10.4,0.5-15.6,1.1c-5.1,0.7-10.3,1.5-15.3,2.6c-5.1,1.1-10.1,2.2-15.1,3.7
			h0l0,0v0c5.1-0.8,10.2-1.5,15.3-2.1c5.1-0.6,10.2-1.1,15.3-1.5c5.1-0.4,10.2-0.6,15.3-0.5c5,0.2,10.2,0.6,14.7,2.1
			c2.2,0.8,4.3,2,5.3,3.6l0.2,0.3l0.1,0.2l0,0l0,0l0.4,0.9c0,0.4,0.1,0.7,0.1,1.3c0,1-0.2,2.1-0.5,3.2c-0.7,2.2-1.9,4.4-3.1,6.6
			c-1.3,2.2-2.7,4.2-4.2,6.3c-3,4.1-6.3,8.1-9.6,11.9l-5.1,5.8l-5.2,5.7c2.1-1.6,4.1-3.2,6-4.9C170,325.5,172,323.8,173.9,322z"/>
		<path class="st1" d="M356.4,260c5.1-2.9,10.8-4.9,16.5-6.9c5.7-1.8,11.5-3.6,17.3-5.1c5.8-1.6,11.7-2.9,17.6-4.3
			c5.9-1.4,11.8-2.6,17.7-3.9v0c0,0,0,0,0,0c-7,0.7-14,1.4-21,1.8c-7,0.5-14,0.8-21,0.9c-7,0.1-14-0.1-20.9-0.6
			c-6.9-0.6-13.9-1.5-20.2-4c-3.1-1.2-6.1-2.9-8-5.3l-0.7-0.9l-0.5-1.1c-0.2-0.4-0.2-0.7-0.3-1.1c-0.1-0.3-0.2-0.6-0.2-1.1
			c-0.3-1.5-0.2-3.2-0.1-4.8c0.3-3.3,1.3-6.6,2.4-9.9c1.1-3.3,2.4-6.5,3.9-9.6c2.8-6.4,6.1-12.6,9.6-18.6c1.8-3,3.5-6.1,5.3-9.1
			c1.8-3,3.7-6,5.5-9l0,0l0,0c0,0,0,0,0,0c-4.7,4.9-9.6,9.5-14.6,14c-5,4.5-10.3,8.6-15.9,12.2c-2.8,1.8-5.7,3.3-8.7,4.5
			c-3,1.1-6.2,1.9-9.1,1.3c-0.3-0.1-0.8-0.2-1-0.2c-0.4-0.1-0.9-0.3-1.1-0.4c-0.5-0.2-1.1-0.7-1.6-1.2c-1-1-1.7-2.4-2.3-3.8
			c-1.1-2.9-1.7-6.2-2-9.5c-0.6-6.6-0.3-13.3,0.2-20c0.5-6.7,1.2-13.4,2.2-20c0.9-6.7,2.1-13.3,3.2-19.9c1.2-6.6,2.5-13.3,3.8-19.9
			l0,0c0,0,0,0,0,0c-3,10.4-6.7,20.7-10.7,30.8c-2,5-4.2,10-6.6,14.8c-1.2,2.4-2.5,4.8-3.8,7.2c-1.3,2.3-2.7,4.7-4.2,6.9
			c-1.5,2.2-3,4.4-4.8,6.5c-1.7,2.1-3.6,3.9-5.5,5.6c-2,1.6-4.2,3-6.6,3.8l-1.8,0.5c-0.6,0.1-1.2,0.1-1.8,0.2l-0.5,0l-0.1,0l0,0l0,0
			l-0.3,0c-0.3,0-0.7,0-1-0.1c-0.5-0.1-1-0.3-1.6-0.5c-2.1-0.9-4-2.7-5.6-4.7c-1.6-2-2.9-4.3-4.1-6.7c-2.4-4.7-4.3-9.8-5.8-14.9
			l-2.4-8.2l-0.4,8.5c-0.3,5.3-0.8,10.6-1.5,15.8c-0.4,2.6-0.8,5.2-1.4,7.7c-0.6,2.5-1.3,5-2.2,7.3c-1,2.3-2.2,4.5-3.9,5.7
			c-0.4,0.3-0.8,0.5-1.3,0.7c-0.2,0-0.6,0.2-0.5,0.2l-1,0.2c-0.3,0-0.7,0.1-1,0.1l-0.8,0l-0.8,0l-0.9-0.2c-2.3-0.4-4.6-1.4-6.8-2.7
			c-2.2-1.3-4.3-2.9-6.2-4.6c-2-1.7-3.9-3.6-5.7-5.5c-1.8-1.9-3.6-3.9-5.3-5.9c-3.4-4.1-6.7-8.3-9.8-12.6c-4.6-6.5-9-13.2-13.2-20
			c-1.3-2.4-2.7-4.7-4.2-7l0,0c2.1,4.9,4.2,9.7,6.2,14.7c1.9,4.9,3.8,9.9,5.5,14.9c1.7,5,3.2,10,4.5,15.1c1.2,5.1,2,10.2,2.1,15.2
			c0,2.5-0.3,4.9-1.1,7c-0.2,0.5-0.4,1.1-0.7,1.5c-0.2,0.5-0.5,1-0.9,1.3l-0.5,0.6l0,0l0,0l-0.2,0.2l-0.4,0.3l-0.4,0.3l-0.3,0.2
			l-0.5,0.3c-1.8,1-4.2,1.4-6.6,1.3c-2.4,0-5-0.3-7.5-0.8c-5-1-10.1-2.5-15-4.2c-5-1.7-9.9-3.6-14.9-5.6l0,0l0,0l0,0
			c4.6,3.6,9.1,7.2,13.5,10.8c2.2,1.9,4.4,3.7,6.4,5.7c2.1,2,4.1,3.9,5.9,6c1.8,2.1,3.4,4.3,4.5,6.6c0.5,1.1,0.7,2.2,0.6,3.2
			c0,0.2,0,0.5-0.1,0.7l-0.1,0.3l0,0.1l0,0l-0.6,0.9c-0.2,0.3-0.3,0.3-0.5,0.4c-0.2,0.2-0.8,0.6-1.3,0.9c-0.5,0.3-1.1,0.6-1.7,0.8
			c-1.2,0.5-2.5,0.9-3.8,1.3c-2.6,0.7-5.4,1.2-8.2,1.6c-5.6,0.8-11.3,1.1-17.1,1.3c-5.7,0.2-11.5,0.3-17.2,0.2
			c-5.8,0-11.5-0.1-17.3-0.2c-5.8-0.1-11.5-0.4-17.3-0.6c0,0,0,0,0,0v0c5.5,1,11,1.9,16.4,3c5.4,1.1,10.9,2.2,16.2,3.5
			c5.4,1.2,10.7,2.7,16,4.3c5.2,1.6,10.4,3.6,15.1,6.1c2.3,1.3,4.5,2.8,6,4.6c1.6,1.8,2.1,3.8,1.1,5.6c-1,2-3,3.8-5,5.4
			c-2.1,1.6-4.3,3.2-6.7,4.6c-4.7,2.8-9.6,5.4-14.5,7.9c-4.9,2.5-10,4.9-15,7.2c2.7-0.7,5.4-1.5,8-2.4c2.7-0.9,5.3-1.8,7.9-2.8
			c5.2-2,10.4-4.3,15.3-7c2.5-1.4,4.9-2.8,7.2-4.6c2.3-1.8,4.6-3.7,6.2-6.7c0.2-0.3,0.4-0.8,0.5-1.3l0.2-0.7l0.1-0.5l0.1-0.5l0-0.1
			c0-0.4,0-0.1,0-0.3l0,0l0-0.2l0-0.3l-0.2-1.3c-0.2-0.8-0.5-1.7-0.9-2.4c-0.5-0.7-0.9-1.5-1.4-2c-2.1-2.4-4.6-4.1-7.2-5.4
			c-5.1-2.7-10.5-4.5-15.9-6c-5.4-1.5-10.9-2.7-16.4-3.7c-0.5-0.1-1-0.2-1.4-0.2c0.9,0.1,1.8,0.1,2.8,0.2c11.6,0.6,23.2,1,34.9-0.3
			c2.9-0.3,5.9-0.8,8.8-1.6c1.5-0.4,2.9-0.9,4.4-1.4c0.7-0.4,1.5-0.6,2.2-1.1c0.7-0.5,1.4-0.8,2.2-1.6c0.4-0.4,0.8-0.8,1-1.1
			l0.6-0.9l0.1-0.1l0-0.1l0,0c-0.1,0.2,0.2-0.4,0.2-0.3l0.1-0.4l0.2-0.7c0.2-0.5,0.2-1,0.2-1.5c0.1-2-0.4-3.7-1.1-5.2
			c-1.4-3-3.3-5.4-5.4-7.6c-2.1-2.2-4.3-4.2-6.6-6c-2.3-1.8-4.6-3.5-7-5.1c4.4,2.1,9,3.8,13.8,5.1c2.7,0.6,5.4,1.2,8.3,1.3
			c2.9,0.1,5.9-0.3,8.9-1.8c3.1-1.7,4.8-4.5,5.9-7.4c1-2.9,1.3-5.8,1.3-8.6c-0.1-5.6-1.2-11-2.7-16.2c-1.4-5.2-3.3-10.3-5.4-15.2
			c-0.8-2-1.7-3.9-2.5-5.8c1.1,1.9,2.3,3.8,3.5,5.6c2.9,4.5,6,9,9.3,13.3c1.7,2.1,3.4,4.2,5.2,6.3c1.8,2,3.7,4,5.7,5.9
			c2,1.9,4.2,3.6,6.6,5.2c2.3,1.6,5,2.8,8,3.5l1.1,0.2l1.3,0.1l1.3,0c0.4,0,0.7-0.1,1-0.1l1-0.1c0.7-0.1,0.9-0.3,1.4-0.4
			c0.8-0.3,1.6-0.7,2.2-1.2c2.7-2,4.1-4.8,5.3-7.4c2.2-5.3,3.1-10.8,3.7-16.2c0.3-2.4,0.4-4.8,0.5-7.3c0.9,2.3,1.9,4.6,3,6.9
			c1.3,2.5,2.7,4.9,4.5,7.1c1.8,2.2,4,4.3,6.8,5.6c0.7,0.3,1.5,0.5,2.4,0.6c0.4,0.1,0.7,0.1,1.1,0.1l0.3,0l0.1,0l0.1,0l0,0l0.1,0
			l0.6-0.1c0.7-0.1,1.5-0.1,2.2-0.3l2.1-0.6c2.8-1.1,5.2-2.7,7.3-4.5c2.1-1.9,4-3.9,5.7-6.1c1.7-2.2,3.3-4.5,4.7-6.8
			c1.5-2.3,2.8-4.7,4.1-7.1c1.3-2.4,2.5-4.9,3.6-7.4c2.3-5,4.3-10,6.2-15.1c2.8-7.6,5.3-15.3,7.5-23.1c-1,3.8-1.9,7.7-2.8,11.6
			c-1.5,6.6-2.8,13.2-4,19.9c-1.1,6.7-2.2,13.4-2.8,20.1c-0.6,6.8-0.9,13.6-0.4,20.4c0.3,3.4,0.8,6.9,2.1,10.3
			c0.6,1.7,1.5,3.4,2.8,4.8c0.7,0.7,1.4,1.3,2.5,1.8c0.5,0.3,0.8,0.3,1.3,0.5c0.7,0.2,1,0.2,1.5,0.3c3.8,0.6,7.4-0.3,10.6-1.6
			c3.3-1.3,6.3-3.1,9.1-5c5.7-3.8,10.8-8.4,15.6-13.1c2.4-2.4,4.7-4.8,7-7.4c2.2-2.5,4.4-5.1,6.5-7.8c-2.2,2.7-4.3,5.6-6.3,8.5
			c-2,2.9-4,5.8-5.9,8.7c-3.8,5.9-7.4,12-10.5,18.4c-1.5,3.2-3,6.4-4.2,9.8c-1.2,3.4-2.2,6.8-2.7,10.5c-0.2,1.8-0.3,3.7,0,5.6
			c0.4,2,1,4,2.4,5.4c2.5,3.1,5.9,4.9,9.3,6.2c6.8,2.5,14,3.4,21,3.9c7.1,0.5,14.1,0.4,21.2,0.1c7-0.4,14.1-0.9,21-1.7
			c0.2,0,0.5-0.1,0.7-0.1c-5.3,0.9-10.5,2-15.7,3.2c-5.9,1.3-11.8,2.8-17.6,4.6c-5.8,1.9-11.6,3.9-17.1,6.9
			c-2.7,1.5-5.5,3.2-7.5,6.1c-1.1,1.7-1.6,3.6-1.2,5.4c0.3,1.8,1.1,3.4,2,4.7c1.8,2.8,4.1,4.9,6.5,6.9c2.4,2,4.9,3.7,7.5,5.3
			c2.6,1.7,5.3,3.1,8,4.5c2.7,1.4,5.4,2.8,8.2,4c2.7,1.3,5.6,2.5,8.4,3.6c1.4,0.6,2.8,1.1,4.1,1.6c-1.6-0.6-3.3-1.1-4.9-1.6
			c-3.1-1-6.3-1.9-9.5-2.7c-6.4-1.6-12.8-3-19.4-3.9c-3.3-0.4-6.6-0.7-9.9-0.7c-3.3,0-6.7,0.2-10.1,1.1c-1.7,0.5-3.3,1.1-5,2.4
			c-1.5,1.1-2.6,2.8-3.3,4.5c-1.4,3.4-1.5,7-1.3,10.4c0.2,3.4,0.9,6.7,1.8,9.9c0.8,3.2,1.9,6.4,3,9.5c1.2,3.1,2.3,6.2,3.7,9.2
			c1.3,3,2.8,6,4.2,8.9c0.5,1.1,1.1,2.2,1.7,3.2c-3.3-4.9-6.8-9.8-10.5-14.5c-3.7-4.7-7.7-9.2-12.2-13.3c-2.3-2-4.6-4-7.2-5.6
			c-2.6-1.6-5.5-3.1-8.9-3.5c-0.9,0-1.9-0.2-2.6,0l-1.1,0.2l-0.6,0.1c0,0-0.3,0.1-0.2,0l0,0l-0.1,0l-0.2,0.1l-0.3,0.1
			c-1.8,0.7-3.1,2.1-4.1,3.4c-1.9,2.8-2.9,5.7-3.7,8.7c-1.6,5.9-2.2,11.9-2.7,17.9c-0.1,1.5-0.2,3-0.2,4.5c-0.3-1.2-0.7-2.3-1-3.5
			c-1.7-5.4-3.6-10.8-5.9-16.1c-1.2-2.6-2.4-5.2-3.9-7.7c-1.5-2.5-3.2-5-5.5-7.1c-1.2-1.1-2.4-2-4.2-2.6c-1.6-0.6-3.4-0.5-5-0.1
			c-3.2,0.8-5.7,2.8-7.8,4.8c-2.2,2-4,4.3-5.6,6.7c-1.7,2.3-3.2,4.8-4.6,7.3c-2.8,5-5.2,10.1-7.5,15.3c-2.2,5.2-4.3,10.5-6.2,15.8
			c-1.8,5.3-3.6,10.7-5.1,16.2v0l0,0h0c2-5.3,4-10.6,6.2-15.8c2.2-5.2,4.4-10.4,6.9-15.4c2.4-5.1,5.1-10,7.9-14.8
			c1.4-2.4,3-4.7,4.6-6.9c1.6-2.2,3.4-4.3,5.4-6.1c2-1.8,4.2-3.3,6.5-3.8c1.2-0.2,2.3-0.3,3.4,0.1c0.8,0.3,2,1,2.8,1.9
			c1.8,1.7,3.4,4,4.7,6.3c1.4,2.4,2.6,4.9,3.7,7.4c4.3,10.2,7.4,21.1,10,31.9l4.2,17.8l-0.5-18.3c-0.2-5.8,0-11.8,0.3-17.6
			c0.4-5.8,1-11.7,2.4-17.3c0.7-2.8,1.6-5.5,3.1-7.7c0.7-1.1,1.6-1.9,2.6-2.3l0.2-0.1l0.1,0l0,0l0,0l0.4-0.1l1.1-0.2
			c0.8-0.1,1.2,0,1.8,0c2.5,0.2,5.2,1.4,7.6,2.8c2.5,1.4,4.7,3.2,6.9,5.1c4.4,3.8,8.4,8.2,12.2,12.7c3.8,4.5,7.4,9.2,10.9,14
			c3.2,4.4,6.2,8.9,9.3,13.4c3.3,5.5,6.7,11,10.3,16.3h0l0,0h0c0,0,0,0,0,0c-1.8-3.4-3.7-6.8-5.6-10.1c-1.3-2.4-2.5-4.7-3.8-7.1
			c-3-5.8-5.9-11.6-8.6-17.6c-2.7-5.9-5.1-12-7.3-18.1c-1-3.1-2-6.1-2.8-9.3c-0.8-3.1-1.4-6.3-1.6-9.4c-0.2-3.1,0-6.3,1.1-8.9
			c0.6-1.3,1.3-2.5,2.5-3.3c0.9-0.7,2.4-1.4,3.8-1.8c2.9-0.8,6.1-1.1,9.3-1.1c3.2,0,6.4,0.1,9.6,0.5c6.4,0.6,12.9,1.6,19.3,2.9
			c3.2,0.7,6.4,1.3,9.6,2l9.6,2.2l0,0l0,0h0c0,0,0,0,0,0c0,0,0,0,0,0l-8.1-4l-8-4.2c-5.3-2.9-10.5-5.9-15.4-9.3
			c-2.5-1.7-4.9-3.4-7.1-5.4c-2.2-1.9-4.4-4-5.9-6.3c-0.8-1.2-1.3-2.4-1.5-3.6c-0.3-1.2,0.2-2.4,0.7-3.2
			C351.4,263.2,353.9,261.5,356.4,260z"/>
		<path class="st1" d="M232.1,342c0.7-5.9,1.1-11.9,0.8-18c-0.1-3-0.5-6.1-1.3-9.1c-0.4-1.5-0.9-3-1.6-4.5c-0.3-0.7-0.8-1.4-1.2-2.2
			c-0.5-0.7-1.2-1.6-1.8-2l-0.9-0.7l-0.1,0l-0.2-0.1l-0.1-0.1l-0.3-0.2l-0.6-0.3c-0.8-0.5-1.6-0.6-2.4-0.9c-1.7-0.3-3.3-0.5-4.9-0.4
			c-3.2,0.2-6.2,0.9-9.1,1.8c-2.9,0.9-5.7,2-8.5,3.3c-2.8,1.2-5.4,2.5-8.1,4c-5.3,2.8-10.4,5.9-15.4,9.2c-4.9,3.3-9.8,6.7-14.5,10.4
			l0,0l0,0l0,0c5.1-3.1,10.1-6.2,15.3-9c5.1-2.9,10.3-5.7,15.7-8.2c5.3-2.5,10.7-4.9,16.3-6.5c2.8-0.8,5.6-1.4,8.3-1.5
			c1.4-0.1,2.7,0.1,3.9,0.3c0.6,0.2,1.2,0.3,1.7,0.7l0.7,0.3l0.9,0.7c1.7,1.5,2.8,4.2,3.5,6.9c0.7,2.7,1.1,5.6,1.3,8.5
			c0.4,5.8,0.2,11.7-0.2,17.6c-0.4,5.9-1.1,11.8-1.9,17.6c-0.7,5.9-1.7,11.7-2.7,17.6c1.7-5.7,3-11.5,4.3-17.3
			C230.5,353.9,231.4,348,232.1,342z"/>
	</g>
</g>
<g>
	<g>
		<linearGradient id="SVGID_2_" gradientUnits="userSpaceOnUse" x1="401.0314" y1="161.6594" x2="401.0314" y2="207.5998">
			<stop  offset="0" style="stop-color:#FFAE00"/>
			<stop  offset="1" style="stop-color:#FFF138"/>
		</linearGradient>
		<polygon class="st4" points="390.8,191.7 378.1,182.1 393.1,176.7 398.3,161.7 408,174.2 423.9,174.5 415,187.7 419.7,202.9 
			404.4,198.5 391.3,207.6 		"/>
		<g>
			<path class="st1" d="M398.7,164.1l8.8,11.3l14.3,0.3l-8,11.8l4.2,13.7l-13.7-4l-11.7,8.2l-0.5-14.3l-11.4-8.6l13.4-4.9
				L398.7,164.1L398.7,164.1z M397.9,159.2l-1.4,4.1l-4.3,12.5l-12.4,4.5l-4.1,1.5l3.4,2.6l10.5,8l0.4,13.2l0.1,4.3l3.5-2.5
				l10.8-7.5l12.7,3.7l4.2,1.2l-1.3-4.1l-3.8-12.6l7.4-10.9l2.4-3.6l-4.3-0.1l-13.2-0.3l-8.1-10.4L397.9,159.2L397.9,159.2z"/>
		</g>
	</g>
	<g>
		<linearGradient id="SVGID_3_" gradientUnits="userSpaceOnUse" x1="327.3907" y1="68.6178" x2="327.3907" y2="113.0638">
			<stop  offset="0" style="stop-color:#FFAE00"/>
			<stop  offset="1" style="stop-color:#FFF138"/>
		</linearGradient>
		<polygon class="st5" points="319.7,98.6 304.9,94 316.9,84.1 316.7,68.6 329.8,76.9 344.5,72 340.6,87 349.9,99.5 334.4,100.4 
			325.4,113.1 		"/>
		<g>
			<path class="st1" d="M317.9,70.8l11.7,7.5l13.2-4.4l-3.5,13.5l8.3,11.2l-13.9,0.9l-8.1,11.3l-5.1-12.9l-13.3-4.2l10.7-8.9
				L317.9,70.8L317.9,70.8z M315.5,66.5l0,4.3l0.1,12.8l-9.9,8.1l-3.3,2.8l4.1,1.3l12.2,3.8l4.7,11.9l1.6,4l2.5-3.5l7.4-10.4
				l12.8-0.8l4.3-0.3l-2.6-3.5l-7.6-10.3l3.2-12.4l1.1-4.2l-4.1,1.4L330,75.6l-10.8-6.9L315.5,66.5L315.5,66.5z"/>
		</g>
	</g>
	<g>
		<linearGradient id="SVGID_4_" gradientUnits="userSpaceOnUse" x1="241.4061" y1="108.4235" x2="241.4061" y2="137.2591">
			<stop  offset="0" style="stop-color:#FFAE00"/>
			<stop  offset="1" style="stop-color:#FFF138"/>
		</linearGradient>
		<polygon class="st6" points="233.8,127.1 226.5,120 236.4,117.6 240.9,108.4 246.2,117.2 256.3,118.6 249.6,126.3 251.4,136.4 
			242,132.4 233,137.3 		"/>
		<g>
			<path class="st1" d="M241,110.9l4.5,7.4l8.6,1.2l-5.7,6.5l1.5,8.5l-8-3.4l-7.6,4.1l0.7-8.6l-6.2-6l8.4-2L241,110.9L241,110.9z
				 M240.8,106l-1.9,3.9l-3.3,6.8l-7.3,1.7l-4.2,1l3.1,3l5.4,5.2L232,135l-0.4,4.3l3.8-2l6.6-3.5l6.9,2.9l4,1.7l-0.8-4.3l-1.3-7.4
				l4.9-5.7l2.8-3.3l-4.3-0.6l-7.4-1l-3.9-6.4L240.8,106L240.8,106z"/>
		</g>
	</g>
	<g>
		<linearGradient id="SVGID_5_" gradientUnits="userSpaceOnUse" x1="256.6891" y1="377.4364" x2="256.6891" y2="406.2721">
			<stop  offset="0" style="stop-color:#FFAE00"/>
			<stop  offset="1" style="stop-color:#FFF138"/>
		</linearGradient>
		<polygon class="st7" points="249.1,396.1 241.8,389 251.7,386.6 256.2,377.4 261.5,386.2 271.6,387.6 264.9,395.3 266.7,405.4 
			257.3,401.5 248.3,406.3 		"/>
		<g>
			<path class="st1" d="M256.3,379.9l4.5,7.4l8.6,1.2l-5.7,6.5l1.5,8.5l-8-3.4l-7.6,4.1l0.7-8.6l-6.2-6l8.4-2L256.3,379.9
				L256.3,379.9z M256.1,375l-1.9,3.9l-3.3,6.8l-7.3,1.7l-4.2,1l3.1,3l5.4,5.2l-0.6,7.5l-0.4,4.3l3.8-2l6.6-3.5l6.9,2.9l4,1.7
				l-0.8-4.3l-1.3-7.4l4.9-5.7l2.8-3.3l-4.3-0.6l-7.4-1l-3.9-6.4L256.1,375L256.1,375z"/>
		</g>
	</g>
	<g>
		<linearGradient id="SVGID_6_" gradientUnits="userSpaceOnUse" x1="123.9821" y1="195.4996" x2="123.9821" y2="227.939">
			<stop  offset="0" style="stop-color:#FFAE00"/>
			<stop  offset="1" style="stop-color:#FFF138"/>
		</linearGradient>
		<polygon class="st8" points="118.4,217.4 107.6,214 116.3,206.8 116.2,195.5 125.7,201.6 136.5,198 133.7,208.9 140.4,218 
			129.1,218.7 122.5,227.9 		"/>
		<g>
			<path class="st1" d="M117.4,197.6l8.2,5.2l9.2-3.1l-2.4,9.4l5.8,7.8l-9.7,0.6l-5.6,7.9l-3.6-9l-9.3-2.9l7.5-6.2L117.4,197.6
				L117.4,197.6z M115,193.3l0,4.3l0.1,8.6l-6.6,5.5l-3.3,2.8l4.1,1.3l8.2,2.6l3.2,8l1.6,4l2.5-3.5l5-7l8.6-0.5l4.3-0.3l-2.6-3.5
				l-5.1-6.9l2.1-8.3l1.1-4.2l-4.1,1.4l-8.1,2.7l-7.3-4.6L115,193.3L115,193.3z"/>
		</g>
	</g>
	<g>
		<linearGradient id="SVGID_7_" gradientUnits="userSpaceOnUse" x1="176.6665" y1="341.0995" x2="176.6665" y2="385.5455">
			<stop  offset="0" style="stop-color:#FFAE00"/>
			<stop  offset="1" style="stop-color:#FFF138"/>
		</linearGradient>
		<polygon class="st9" points="169,371.1 154.2,366.5 166.1,356.6 166,341.1 179.1,349.4 193.8,344.5 189.9,359.5 199.1,372 
			183.7,372.9 174.7,385.5 		"/>
		<g>
			<path class="st1" d="M167.2,343.3l11.7,7.5l13.2-4.4l-3.5,13.5l8.3,11.2l-13.9,0.9l-8.1,11.3l-5.1-12.9l-13.3-4.2l10.7-8.9
				L167.2,343.3L167.2,343.3z M164.8,338.9l0,4.3l0.1,12.8l-9.9,8.1l-3.3,2.8l4.1,1.3l12.2,3.8l4.7,11.9l1.6,4l2.5-3.5l7.4-10.4
				l12.8-0.8l4.3-0.3l-2.6-3.5l-7.6-10.3l3.2-12.4l1.1-4.2l-4.1,1.4l-12.1,4.1l-10.8-6.9L164.8,338.9L164.8,338.9z"/>
		</g>
	</g>
	<g>
		<linearGradient id="SVGID_8_" gradientUnits="userSpaceOnUse" x1="397.8601" y1="325.4399" x2="397.8601" y2="369.8859">
			<stop  offset="0" style="stop-color:#FFAE00"/>
			<stop  offset="1" style="stop-color:#FFF138"/>
		</linearGradient>
		<polygon class="st10" points="390.2,355.5 375.4,350.8 387.3,340.9 387.2,325.4 400.3,333.8 415,328.8 411.1,343.8 420.3,356.3 
			404.9,357.3 395.9,369.9 		"/>
		<g>
			<path class="st1" d="M388.4,327.6l11.7,7.5l13.2-4.4l-3.5,13.5l8.3,11.2l-13.9,0.9l-8.1,11.3l-5.1-12.9l-13.3-4.2l10.7-8.9
				L388.4,327.6L388.4,327.6z M386,323.3l0,4.3l0.1,12.8l-9.9,8.1l-3.3,2.8l4.1,1.3l12.2,3.8l4.7,11.9l1.6,4l2.5-3.5l7.4-10.4
				l12.8-0.8l4.3-0.3l-2.6-3.5l-7.6-10.3l3.2-12.4l1.1-4.2l-4.1,1.4l-12.1,4.1l-10.8-6.9L386,323.3L386,323.3z"/>
		</g>
	</g>
</g>
</svg>
