<?xml version="1.0" encoding="utf-8"?>
<!-- Generator: Adobe Illustrator 25.0.0, SVG Export Plug-In . SVG Version: 6.00 Build 0)  -->
<svg version="1.1" id="Layer_1" xmlns:sketch="http://www.bohemiancoding.com/sketch/ns"
	 xmlns="http://www.w3.org/2000/svg" xmlns:xlink="http://www.w3.org/1999/xlink" x="0px" y="0px" viewBox="0 0 60 60"
	 style="enable-background:new 0 0 60 60;" xml:space="preserve">
<style type="text/css">
	.st0{fill-rule:evenodd;clip-rule:evenodd;}
</style>
<desc></desc>
<g id="black">
	<g id="slice" transform="translate(-900.000000, -500.000000)">
	</g>
	<g id="github" transform="translate(11.000000, 11.000000)">
		<path class="st0" d="M11.6,47.5c0-0.7,0-2.7,0-5.2c-8.3,1.9-10.1-4.1-10.1-4.1c-1.4-3.6-3.3-4.5-3.3-4.5c-2.7-1.9,0.2-1.9,0.2-1.9
			C1.4,32,3,35,3,35c2.7,4.7,7,3.3,8.7,2.6c0.3-2,1-3.3,1.9-4.1C6.9,32.6-0.1,29.9-0.1,18.2c0-3.4,1.2-6.1,3.1-8.3
			C2.6,9.1,1.6,6,3.2,1.8c0,0,2.5-0.8,8.2,3.2c2.4-0.7,5-1,7.5-1s5.1,0.4,7.5,1c5.7-4,8.2-3.2,8.2-3.2c1.6,4.2,0.6,7.4,0.3,8.1
			c1.9,2.2,3.1,4.9,3.1,8.3c0,11.8-7,14.4-13.7,15.2c1.1,0.9,2,2.8,2,5.7c0,4.1,0,7.4,0,8.4c0,0.8,0.5,1.8,2.1,1.5
			C40.4,44.9,49,33.3,49,19.8C49,2.8,35.6-11,19-11S-11,2.8-11,19.8C-11,33.4-2.4,44.9,9.5,49C11,49.2,11.6,48.3,11.6,47.5z"/>
	</g>
</g>
</svg>
