<?xml version="1.0" encoding="utf-8"?>
<!-- Generator: Adobe Illustrator 25.0.0, SVG Export Plug-In . SVG Version: 6.00 Build 0)  -->
<svg version="1.1" id="Layer_1" xmlns="http://www.w3.org/2000/svg" xmlns:xlink="http://www.w3.org/1999/xlink" x="0px" y="0px"
	 viewBox="0 0 128 128" style="enable-background:new 0 0 128 128;" xml:space="preserve">
<style type="text/css">
	.st0{fill:#020202;}
</style>
<path class="st0" d="M88.8,10.4c15.9,0,28.7,12.8,28.7,28.7v49.6c0,15.9-12.8,28.7-28.7,28.7H39.2c-15.9,0-28.7-12.8-28.7-28.7V39.2
	c0-15.9,12.8-28.7,28.7-28.7H88.8 M88.8,0H39.2C17.6,0,0,17.6,0,39.2v49.6C0,110.4,17.6,128,39.2,128h49.6
	c21.6,0,39.2-17.6,39.2-39.2V39.2C128,17.6,110.4,0,88.8,0z"/>
<path class="st0" d="M98.1,22.2c-4.2,0-7.4,3.4-7.4,7.4s3.4,7.4,7.4,7.4c4.2,0,7.4-3.4,7.4-7.4C105.7,25.6,102.3,22.2,98.1,22.2
	L98.1,22.2z"/>
<path class="st0" d="M64.4,41.1c12.7,0,23.1,10.3,23.1,23S77.2,87.2,64.4,87.2S41.3,76.9,41.3,64.1l0,0
	C41.3,51.5,51.6,41.1,64.4,41.1 M64.4,30.7c-18.5,0-33.6,15-33.4,33.6c0,18.5,15,33.6,33.6,33.4c18.4,0,33.4-15,33.4-33.6
	C98,45.7,82.9,30.7,64.4,30.7L64.4,30.7z"/>
</svg>
