<?xml version="1.0" encoding="utf-8"?>
<!-- Generator: Adobe Illustrator 25.0.0, SVG Export Plug-In . SVG Version: 6.00 Build 0)  -->
<svg version="1.1" id="Layer_1" xmlns="http://www.w3.org/2000/svg" xmlns:xlink="http://www.w3.org/1999/xlink" x="0px" y="0px"
	 viewBox="0 0 32 32" style="enable-background:new 0 0 32 32;" xml:space="preserve">
<g transform="translate(96 240)">
	<path d="M-64.2-220.6v11.6H-71v-10.8c0-2.7-1-4.6-3.4-4.6c-1.9,0-3,1.2-3.5,2.5c-0.2,0.4-0.2,1-0.2,1.6v11.4h-6.8
		c0,0,0.1-18.4,0-20.4h6.8v2.8c0,0,0,0,0,0.1l0,0v-0.1c0.9-1.4,2.5-3.4,6.1-3.4C-67.5-229.7-64.2-226.8-64.2-220.6L-64.2-220.6z
		 M-91.9-239.1c-2.3,0-3.8,1.5-3.8,3.5s1.4,3.5,3.7,3.5l0,0c2.4,0,3.8-1.5,3.8-3.5C-88.2-237.6-89.6-239.1-91.9-239.1L-91.9-239.1z
		 M-95.3-208.9h6.8v-20.4h-6.8V-208.9z"/>
</g>
</svg>
