<?xml version="1.0" encoding="utf-8"?>
<!-- Generator: Adobe Illustrator 25.0.0, SVG Export Plug-In . SVG Version: 6.00 Build 0)  -->
<svg version="1.1" id="Layer_1" xmlns="http://www.w3.org/2000/svg" xmlns:xlink="http://www.w3.org/1999/xlink" x="0px" y="0px"
	 viewBox="0 0 512 512" style="enable-background:new 0 0 512 512;" xml:space="preserve">
<path d="M512,97.1c-18.9,8.4-39.1,14-60.3,16.6c21.7-13,38.4-33.6,46.2-58.2c-20.3,12-42.7,20.8-66.7,25.5
	c-19.2-20.5-46.5-33.3-76.7-33.3c-58,0-105,47.1-105,105.1c0,8.2,0.9,16.3,2.7,24c-87.3-4.3-164.8-46.2-216.6-109.9
	c-9,15.5-14.2,33.6-14.2,52.8c0,36.5,18.6,68.7,46.8,87.6c-17.3-0.4-33.5-5.2-47.6-13.1c0,0.4,0,0.9,0,1.3
	c0,51,36.2,93.4,84.3,103.1c-8.8,2.4-18.1,3.7-27.7,3.7c-6.7,0-13.3-0.7-19.7-2c13.3,41.8,52.2,72.2,98.2,73
	c-35.9,28.2-81.3,45-130.5,45c-8.5,0-16.8-0.5-25.1-1.5c46.4,30.2,101.7,47.5,160.9,47.5c193.3,0,299-160.3,299-299.2
	c0-4.6-0.1-9.1-0.3-13.6C480.1,136.7,497.9,118.1,512,97.1z"/>
</svg>
